<svg xmlns="http://www.w3.org/2000/svg" width="32" height="32" xmlns:v="https://vecta.io/nano"><path fill="#fff" d="M29.714 17.143c-1.696-2.625-4.018-4.875-6.804-6.304a7.94 7.94 0 0 1 1.089 4.018 8.01 8.01 0 0 1-8 8 8.01 8.01 0 0 1-8-8 7.94 7.94 0 0 1 1.089-4.018c-2.786 1.429-5.107 3.679-6.804 6.304 3.054 4.714 7.982 8 13.714 8s10.661-3.286 13.714-8zm-12.857-6.857A.87.87 0 0 0 16 9.429a5.45 5.45 0 0 0-5.429 5.429.87.87 0 0 0 .857.857.87.87 0 0 0 .857-.857c0-2.036 1.679-3.714 3.714-3.714a.87.87 0 0 0 .857-.857zM32 17.143c0 .446-.143.857-.357 1.232-3.286 5.411-9.304 9.054-15.643 9.054S3.643 23.768.357 18.375C.143 18 0 17.589 0 17.143s.143-.857.357-1.232C3.643 10.518 9.661 6.857 16 6.857s12.357 3.661 15.643 9.054c.214.375.357.786.357 1.232z"/></svg>