<svg width="474" height="440" viewBox="0 0 474 440" fill="none" xmlns="http://www.w3.org/2000/svg">
<g filter="url(#filter0_f)">
<circle cx="442.5" cy="99.5" r="2.8" stroke="#2E3545" stroke-width="0.5"/>
<circle cx="442.5" cy="99.5" r="5.85" stroke="#2E3545" stroke-width="0.5"/>
<circle cx="442.5" cy="99.5" r="8.9" stroke="#2E3545" stroke-width="0.5"/>
<circle cx="442.5" cy="99.5" r="11.95" stroke="#2E3545" stroke-width="0.5"/>
<circle cx="442.5" cy="99.5" r="15" stroke="#2E3545" stroke-width="0.5"/>
<circle cx="442.5" cy="99.5" r="18.05" stroke="#2E3545" stroke-width="0.5"/>
<circle cx="442.5" cy="99.5" r="21.1" stroke="#2E3545" stroke-width="0.5"/>
<circle cx="442.5" cy="99.5" r="24.15" stroke="#2E3545" stroke-width="0.5"/>
<circle cx="442.5" cy="99.5" r="27.2" stroke="#2E3545" stroke-width="0.5"/>
<circle cx="442.5" cy="99.5" r="30.25" stroke="#2E3545" stroke-width="0.5"/>
</g>
<g filter="url(#filter1_f)">
<circle cx="51.4999" cy="307.5" r="3.9" stroke="#2E3545" stroke-width="0.5"/>
<circle cx="51.5" cy="307.5" r="8.05" stroke="#2E3545" stroke-width="0.5"/>
<circle cx="51.5" cy="307.5" r="12.2" stroke="#2E3545" stroke-width="0.5"/>
<circle cx="51.5001" cy="307.5" r="16.35" stroke="#2E3545" stroke-width="0.5"/>
<circle cx="51.5" cy="307.5" r="20.5" stroke="#2E3545" stroke-width="0.5"/>
<circle cx="51.4999" cy="307.5" r="24.65" stroke="#2E3545" stroke-width="0.5"/>
<circle cx="51.5" cy="307.5" r="28.8" stroke="#2E3545" stroke-width="0.5"/>
<circle cx="51.5" cy="307.5" r="32.95" stroke="#2E3545" stroke-width="0.5"/>
<circle cx="51.5001" cy="307.5" r="37.1" stroke="#2E3545" stroke-width="0.5"/>
<circle cx="51.5" cy="307.5" r="41.25" stroke="#2E3545" stroke-width="0.5"/>
</g>
<g filter="url(#filter2_d)">
<path d="M425 61L431.928 73H418.072L425 61Z" fill="#7A87DE"/>
</g>
<g filter="url(#filter3_d)">
<path d="M59 223L52.0718 211H65.9282L59 223Z" fill="#FAAF68"/>
</g>
<g filter="url(#filter4_df)">
<path d="M15 287L19.3301 294.5H10.6699L15 287Z" fill="#FF796B"/>
</g>
<g filter="url(#filter5_df)">
<path d="M412 122L407.67 114.5H416.33L412 122Z" fill="#FF796B"/>
</g>
<g filter="url(#filter6_d)">
<path d="M148 418L154.928 430H141.072L148 418Z" fill="#7A87DE"/>
</g>
<g filter="url(#filter7_df)">
<path d="M425 338L429.33 345.5H420.67L425 338Z" fill="#FAAF68"/>
</g>
<g filter="url(#filter8_df)">
<path d="M20 77L15.6699 69.5H24.3301L20 77Z" fill="#7A87DE"/>
</g>
<path d="M125.294 294.8C127.598 294.8 129.53 295.376 131.09 296.528C132.674 297.656 133.85 299.18 134.618 301.1C135.41 302.996 135.806 305.096 135.806 307.4C135.806 309.776 135.41 311.912 134.618 313.808C133.85 315.704 132.674 317.216 131.09 318.344C129.53 319.448 127.598 320 125.294 320H116.114C115.802 320 115.538 319.904 115.322 319.712C115.13 319.496 115.034 319.232 115.034 318.92V295.88C115.034 295.568 115.13 295.316 115.322 295.124C115.538 294.908 115.802 294.8 116.114 294.8H125.294ZM124.934 317.876C127.814 317.876 129.962 316.916 131.378 314.996C132.794 313.052 133.502 310.52 133.502 307.4C133.502 305.456 133.202 303.704 132.602 302.144C132.002 300.56 131.054 299.3 129.758 298.364C128.486 297.404 126.878 296.924 124.934 296.924H117.302V317.876H124.934ZM142.457 318.92C142.457 319.232 142.349 319.496 142.133 319.712C141.941 319.904 141.689 320 141.377 320C141.065 320 140.801 319.904 140.585 319.712C140.393 319.496 140.297 319.232 140.297 318.92V302.36C140.297 302.048 140.393 301.796 140.585 301.604C140.801 301.388 141.065 301.28 141.377 301.28C141.689 301.28 141.941 301.388 142.133 301.604C142.349 301.796 142.457 302.048 142.457 302.36V318.92ZM141.377 298.868C140.897 298.868 140.525 298.76 140.261 298.544C139.997 298.304 139.865 297.968 139.865 297.536V297.176C139.865 296.744 139.997 296.42 140.261 296.204C140.549 295.964 140.933 295.844 141.413 295.844C142.373 295.844 142.853 296.288 142.853 297.176V297.536C142.853 297.968 142.721 298.304 142.457 298.544C142.217 298.76 141.857 298.868 141.377 298.868ZM163.009 301.604C163.321 301.604 163.573 301.712 163.765 301.928C163.981 302.144 164.089 302.408 164.089 302.72V318.92C164.089 319.232 163.981 319.496 163.765 319.712C163.573 319.904 163.321 320 163.009 320C162.697 320 162.433 319.904 162.217 319.712C162.025 319.496 161.929 319.232 161.929 318.92V316.508C161.329 317.588 160.429 318.5 159.229 319.244C158.029 319.988 156.721 320.36 155.305 320.36C153.697 320.36 152.245 319.94 150.949 319.1C149.677 318.26 148.669 317.108 147.925 315.644C147.205 314.18 146.845 312.536 146.845 310.712C146.845 308.888 147.217 307.256 147.961 305.816C148.705 304.352 149.713 303.212 150.985 302.396C152.281 301.58 153.709 301.172 155.269 301.172C156.709 301.172 158.029 301.52 159.229 302.216C160.429 302.912 161.329 303.824 161.929 304.952V302.72C161.929 302.408 162.025 302.144 162.217 301.928C162.433 301.712 162.697 301.604 163.009 301.604ZM155.521 318.344C156.769 318.344 157.885 318.02 158.869 317.372C159.877 316.7 160.657 315.788 161.209 314.636C161.785 313.46 162.073 312.152 162.073 310.712C162.073 309.32 161.785 308.048 161.209 306.896C160.657 305.744 159.877 304.844 158.869 304.196C157.885 303.524 156.769 303.188 155.521 303.188C154.273 303.188 153.145 303.512 152.137 304.16C151.153 304.808 150.373 305.708 149.797 306.86C149.245 307.988 148.969 309.272 148.969 310.712C148.969 312.152 149.245 313.46 149.797 314.636C150.349 315.788 151.117 316.7 152.101 317.372C153.109 318.02 154.249 318.344 155.521 318.344ZM190.605 301.46C192.765 301.46 194.349 302.132 195.357 303.476C196.389 304.796 196.905 306.548 196.905 308.732V318.92C196.905 319.232 196.797 319.496 196.581 319.712C196.389 319.904 196.137 320 195.825 320C195.513 320 195.249 319.904 195.033 319.712C194.841 319.496 194.745 319.232 194.745 318.92V308.84C194.745 307.256 194.361 305.972 193.593 304.988C192.849 303.98 191.685 303.476 190.101 303.476C189.093 303.476 188.133 303.716 187.221 304.196C186.333 304.676 185.613 305.336 185.061 306.176C184.509 306.992 184.233 307.88 184.233 308.84V318.92C184.233 319.232 184.125 319.496 183.909 319.712C183.717 319.904 183.465 320 183.153 320C182.841 320 182.577 319.904 182.361 319.712C182.169 319.496 182.073 319.232 182.073 318.92V308.732C182.073 307.172 181.713 305.912 180.993 304.952C180.273 303.968 179.145 303.476 177.609 303.476C176.625 303.476 175.689 303.716 174.801 304.196C173.937 304.676 173.229 305.324 172.677 306.14C172.149 306.932 171.885 307.796 171.885 308.732V318.92C171.885 319.232 171.777 319.496 171.561 319.712C171.369 319.904 171.117 320 170.805 320C170.493 320 170.229 319.904 170.013 319.712C169.821 319.496 169.725 319.232 169.725 318.92V302.792C169.725 302.48 169.821 302.228 170.013 302.036C170.229 301.82 170.493 301.712 170.805 301.712C171.117 301.712 171.369 301.82 171.561 302.036C171.777 302.228 171.885 302.48 171.885 302.792V304.88C172.533 303.896 173.409 303.08 174.513 302.432C175.617 301.784 176.781 301.46 178.005 301.46C179.397 301.46 180.597 301.796 181.605 302.468C182.613 303.14 183.333 304.124 183.765 305.42C184.269 304.364 185.193 303.44 186.537 302.648C187.881 301.856 189.237 301.46 190.605 301.46ZM219.553 310.784C219.553 312.584 219.157 314.216 218.365 315.68C217.573 317.144 216.481 318.296 215.089 319.136C213.697 319.952 212.149 320.36 210.445 320.36C208.741 320.36 207.193 319.952 205.801 319.136C204.409 318.296 203.317 317.144 202.525 315.68C201.733 314.216 201.337 312.584 201.337 310.784C201.337 308.984 201.733 307.352 202.525 305.888C203.317 304.424 204.409 303.272 205.801 302.432C207.193 301.592 208.741 301.172 210.445 301.172C212.149 301.172 213.697 301.592 215.089 302.432C216.481 303.272 217.573 304.424 218.365 305.888C219.157 307.352 219.553 308.984 219.553 310.784ZM217.393 310.784C217.393 309.344 217.093 308.048 216.493 306.896C215.893 305.744 215.053 304.844 213.973 304.196C212.917 303.524 211.741 303.188 210.445 303.188C209.149 303.188 207.973 303.524 206.917 304.196C205.861 304.844 205.021 305.744 204.397 306.896C203.797 308.048 203.497 309.344 203.497 310.784C203.497 312.2 203.797 313.484 204.397 314.636C205.021 315.788 205.861 316.7 206.917 317.372C207.973 318.02 209.149 318.344 210.445 318.344C211.741 318.344 212.917 318.02 213.973 317.372C215.053 316.724 215.893 315.824 216.493 314.672C217.093 313.52 217.393 312.224 217.393 310.784ZM232.647 301.172C234.879 301.172 236.511 301.832 237.543 303.152C238.599 304.448 239.127 306.176 239.127 308.336V318.92C239.127 319.232 239.019 319.496 238.803 319.712C238.587 319.904 238.335 320 238.047 320C237.735 320 237.471 319.904 237.255 319.712C237.063 319.496 236.967 319.232 236.967 318.92V308.444C236.967 306.884 236.571 305.624 235.779 304.664C235.011 303.68 233.811 303.188 232.179 303.188C231.147 303.188 230.163 303.428 229.227 303.908C228.315 304.388 227.571 305.036 226.995 305.852C226.419 306.644 226.131 307.508 226.131 308.444V318.92C226.131 319.232 226.023 319.496 225.807 319.712C225.615 319.904 225.363 320 225.051 320C224.739 320 224.475 319.904 224.259 319.712C224.067 319.496 223.971 319.232 223.971 318.92V302.792C223.971 302.48 224.067 302.228 224.259 302.036C224.475 301.82 224.739 301.712 225.051 301.712C225.363 301.712 225.615 301.82 225.807 302.036C226.023 302.228 226.131 302.48 226.131 302.792V304.772C226.779 303.74 227.703 302.888 228.903 302.216C230.127 301.52 231.375 301.172 232.647 301.172ZM259.723 293.36C260.035 293.36 260.287 293.468 260.479 293.684C260.695 293.876 260.803 294.128 260.803 294.44V318.92C260.803 319.232 260.695 319.496 260.479 319.712C260.287 319.904 260.035 320 259.723 320C259.411 320 259.147 319.904 258.931 319.712C258.739 319.496 258.643 319.232 258.643 318.92V316.4C258.043 317.504 257.143 318.44 255.943 319.208C254.767 319.976 253.459 320.36 252.019 320.36C250.435 320.36 248.995 319.952 247.699 319.136C246.427 318.296 245.419 317.144 244.675 315.68C243.931 314.216 243.559 312.572 243.559 310.748C243.559 308.948 243.931 307.316 244.675 305.852C245.419 304.388 246.427 303.248 247.699 302.432C248.995 301.592 250.423 301.172 251.983 301.172C253.399 301.172 254.707 301.532 255.907 302.252C257.107 302.948 258.019 303.86 258.643 304.988V294.44C258.643 294.128 258.739 293.876 258.931 293.684C259.147 293.468 259.411 293.36 259.723 293.36ZM252.235 318.344C253.483 318.344 254.599 318.02 255.583 317.372C256.591 316.724 257.371 315.824 257.923 314.672C258.499 313.496 258.787 312.188 258.787 310.748C258.787 309.332 258.499 308.048 257.923 306.896C257.371 305.744 256.591 304.844 255.583 304.196C254.599 303.524 253.483 303.188 252.235 303.188C250.987 303.188 249.859 303.524 248.851 304.196C247.867 304.844 247.087 305.744 246.511 306.896C245.959 308.048 245.683 309.332 245.683 310.748C245.683 312.188 245.959 313.484 246.511 314.636C247.087 315.788 247.867 316.7 248.851 317.372C249.859 318.02 250.987 318.344 252.235 318.344ZM294.859 294.8C295.195 294.8 295.459 294.908 295.651 295.124C295.867 295.316 295.975 295.58 295.975 295.916V318.884C295.951 319.22 295.831 319.496 295.615 319.712C295.399 319.904 295.135 320 294.823 320C294.511 320 294.247 319.892 294.031 319.676C293.815 319.46 293.707 319.196 293.707 318.884V308.156H279.091V318.884C279.067 319.196 278.947 319.46 278.731 319.676C278.515 319.892 278.251 320 277.939 320C277.603 320 277.327 319.904 277.111 319.712C276.919 319.496 276.823 319.22 276.823 318.884V295.916C276.823 295.58 276.931 295.316 277.147 295.124C277.363 294.908 277.639 294.8 277.975 294.8C278.287 294.8 278.551 294.908 278.767 295.124C278.983 295.34 279.091 295.604 279.091 295.916V306.068H293.707V295.916C293.707 295.604 293.815 295.34 294.031 295.124C294.271 294.908 294.547 294.8 294.859 294.8ZM317.134 301.604C317.446 301.604 317.698 301.712 317.89 301.928C318.106 302.144 318.214 302.408 318.214 302.72V318.92C318.214 319.232 318.106 319.496 317.89 319.712C317.698 319.904 317.446 320 317.134 320C316.822 320 316.558 319.904 316.342 319.712C316.15 319.496 316.054 319.232 316.054 318.92V316.508C315.454 317.588 314.554 318.5 313.354 319.244C312.154 319.988 310.846 320.36 309.43 320.36C307.822 320.36 306.37 319.94 305.074 319.1C303.802 318.26 302.794 317.108 302.05 315.644C301.33 314.18 300.97 312.536 300.97 310.712C300.97 308.888 301.342 307.256 302.086 305.816C302.83 304.352 303.838 303.212 305.11 302.396C306.406 301.58 307.834 301.172 309.394 301.172C310.834 301.172 312.154 301.52 313.354 302.216C314.554 302.912 315.454 303.824 316.054 304.952V302.72C316.054 302.408 316.15 302.144 316.342 301.928C316.558 301.712 316.822 301.604 317.134 301.604ZM309.646 318.344C310.894 318.344 312.01 318.02 312.994 317.372C314.002 316.7 314.782 315.788 315.334 314.636C315.91 313.46 316.198 312.152 316.198 310.712C316.198 309.32 315.91 308.048 315.334 306.896C314.782 305.744 314.002 304.844 312.994 304.196C312.01 303.524 310.894 303.188 309.646 303.188C308.398 303.188 307.27 303.512 306.262 304.16C305.278 304.808 304.498 305.708 303.922 306.86C303.37 307.988 303.094 309.272 303.094 310.712C303.094 312.152 303.37 313.46 303.922 314.636C304.474 315.788 305.242 316.7 306.226 317.372C307.234 318.02 308.374 318.344 309.646 318.344ZM332.526 301.172C334.758 301.172 336.39 301.832 337.422 303.152C338.478 304.448 339.006 306.176 339.006 308.336V318.92C339.006 319.232 338.898 319.496 338.682 319.712C338.466 319.904 338.214 320 337.926 320C337.614 320 337.35 319.904 337.134 319.712C336.942 319.496 336.846 319.232 336.846 318.92V308.444C336.846 306.884 336.45 305.624 335.658 304.664C334.89 303.68 333.69 303.188 332.058 303.188C331.026 303.188 330.042 303.428 329.106 303.908C328.194 304.388 327.45 305.036 326.874 305.852C326.298 306.644 326.01 307.508 326.01 308.444V318.92C326.01 319.232 325.902 319.496 325.686 319.712C325.494 319.904 325.242 320 324.93 320C324.618 320 324.354 319.904 324.138 319.712C323.946 319.496 323.85 319.232 323.85 318.92V302.792C323.85 302.48 323.946 302.228 324.138 302.036C324.354 301.82 324.618 301.712 324.93 301.712C325.242 301.712 325.494 301.82 325.686 302.036C325.902 302.228 326.01 302.48 326.01 302.792V304.772C326.658 303.74 327.582 302.888 328.782 302.216C330.006 301.52 331.254 301.172 332.526 301.172ZM359.602 293.36C359.914 293.36 360.166 293.468 360.358 293.684C360.574 293.876 360.682 294.128 360.682 294.44V318.92C360.682 319.232 360.574 319.496 360.358 319.712C360.166 319.904 359.914 320 359.602 320C359.29 320 359.026 319.904 358.81 319.712C358.618 319.496 358.522 319.232 358.522 318.92V316.4C357.922 317.504 357.022 318.44 355.822 319.208C354.646 319.976 353.338 320.36 351.898 320.36C350.314 320.36 348.874 319.952 347.578 319.136C346.306 318.296 345.298 317.144 344.554 315.68C343.81 314.216 343.438 312.572 343.438 310.748C343.438 308.948 343.81 307.316 344.554 305.852C345.298 304.388 346.306 303.248 347.578 302.432C348.874 301.592 350.302 301.172 351.862 301.172C353.278 301.172 354.586 301.532 355.786 302.252C356.986 302.948 357.898 303.86 358.522 304.988V294.44C358.522 294.128 358.618 293.876 358.81 293.684C359.026 293.468 359.29 293.36 359.602 293.36ZM352.114 318.344C353.362 318.344 354.478 318.02 355.462 317.372C356.47 316.724 357.25 315.824 357.802 314.672C358.378 313.496 358.666 312.188 358.666 310.748C358.666 309.332 358.378 308.048 357.802 306.896C357.25 305.744 356.47 304.844 355.462 304.196C354.478 303.524 353.362 303.188 352.114 303.188C350.866 303.188 349.738 303.524 348.73 304.196C347.746 304.844 346.966 305.744 346.39 306.896C345.838 308.048 345.562 309.332 345.562 310.748C345.562 312.188 345.838 313.484 346.39 314.636C346.966 315.788 347.746 316.7 348.73 317.372C349.738 318.02 350.866 318.344 352.114 318.344ZM365.275 317.084C365.083 316.772 364.987 316.508 364.987 316.292C364.987 315.98 365.143 315.74 365.455 315.572C365.599 315.428 365.791 315.356 366.031 315.356C366.319 315.356 366.583 315.476 366.823 315.716C368.239 317.588 370.123 318.524 372.475 318.524C373.627 318.524 374.623 318.26 375.463 317.732C376.327 317.18 376.759 316.388 376.759 315.356C376.759 314.348 376.363 313.592 375.571 313.088C374.779 312.584 373.675 312.152 372.259 311.792C370.267 311.288 368.707 310.64 367.579 309.848C366.451 309.032 365.887 307.844 365.887 306.284C365.887 305.3 366.163 304.424 366.715 303.656C367.267 302.864 368.011 302.252 368.947 301.82C369.907 301.388 370.987 301.172 372.187 301.172C373.219 301.172 374.251 301.376 375.283 301.784C376.339 302.168 377.239 302.792 377.983 303.656C378.199 303.824 378.307 304.064 378.307 304.376C378.307 304.664 378.187 304.916 377.947 305.132C377.779 305.276 377.563 305.348 377.299 305.348C377.059 305.348 376.843 305.252 376.651 305.06C376.075 304.412 375.391 303.92 374.599 303.584C373.807 303.248 372.955 303.08 372.043 303.08C370.915 303.08 369.943 303.344 369.127 303.872C368.335 304.4 367.939 305.192 367.939 306.248C367.987 307.208 368.419 307.94 369.235 308.444C370.075 308.948 371.299 309.404 372.907 309.812C374.155 310.124 375.187 310.472 376.003 310.856C376.819 311.24 377.479 311.78 377.983 312.476C378.511 313.172 378.775 314.096 378.775 315.248C378.775 316.808 378.151 318.056 376.903 318.992C375.655 319.904 374.107 320.36 372.259 320.36C369.331 320.36 367.003 319.268 365.275 317.084Z" fill="white"/>
<path d="M170.242 333.2C170.494 333.2 170.699 333.275 170.858 333.424C171.017 333.573 171.096 333.769 171.096 334.012C171.096 334.255 171.017 334.451 170.858 334.6C170.699 334.74 170.494 334.81 170.242 334.81H168.044V342.146C168.044 342.389 167.955 342.594 167.778 342.762C167.601 342.921 167.381 343 167.12 343C166.859 343 166.644 342.921 166.476 342.762C166.308 342.594 166.224 342.389 166.224 342.146V334.81H164.026C163.774 334.81 163.569 334.735 163.41 334.586C163.251 334.437 163.172 334.241 163.172 333.998C163.172 333.765 163.251 333.573 163.41 333.424C163.578 333.275 163.783 333.2 164.026 333.2H170.242ZM176.36 335.37C177.284 335.37 177.923 335.655 178.278 336.224C178.632 336.784 178.81 337.563 178.81 338.562V342.146C178.81 342.389 178.73 342.594 178.572 342.762C178.413 342.921 178.212 343 177.97 343C177.727 343 177.526 342.921 177.368 342.762C177.209 342.594 177.13 342.389 177.13 342.146V338.562C177.13 338.049 177.027 337.647 176.822 337.358C176.626 337.059 176.276 336.91 175.772 336.91C175.249 336.91 174.838 337.069 174.54 337.386C174.25 337.694 174.106 338.086 174.106 338.562V342.146C174.106 342.389 174.026 342.594 173.868 342.762C173.709 342.921 173.508 343 173.266 343C173.023 343 172.822 342.921 172.664 342.762C172.505 342.594 172.426 342.389 172.426 342.146V333.494C172.426 333.251 172.505 333.051 172.664 332.892C172.822 332.724 173.023 332.64 173.266 332.64C173.508 332.64 173.709 332.724 173.868 332.892C174.026 333.051 174.106 333.251 174.106 333.494V336.588C174.358 336.252 174.675 335.967 175.058 335.734C175.45 335.491 175.884 335.37 176.36 335.37ZM187.349 339.08C187.339 339.304 187.251 339.486 187.083 339.626C186.915 339.766 186.719 339.836 186.495 339.836H181.875C181.987 340.387 182.243 340.821 182.645 341.138C183.046 341.446 183.499 341.6 184.003 341.6C184.385 341.6 184.684 341.567 184.899 341.502C185.113 341.427 185.281 341.353 185.403 341.278C185.533 341.194 185.622 341.138 185.669 341.11C185.837 341.026 185.995 340.984 186.145 340.984C186.341 340.984 186.509 341.054 186.649 341.194C186.789 341.334 186.859 341.497 186.859 341.684C186.859 341.936 186.728 342.165 186.467 342.37C186.205 342.585 185.855 342.767 185.417 342.916C184.978 343.065 184.535 343.14 184.087 343.14C183.303 343.14 182.617 342.977 182.029 342.65C181.45 342.323 181.002 341.875 180.685 341.306C180.367 340.727 180.209 340.079 180.209 339.36C180.209 338.557 180.377 337.853 180.713 337.246C181.049 336.639 181.492 336.177 182.043 335.86C182.593 335.533 183.181 335.37 183.807 335.37C184.423 335.37 185.001 335.538 185.543 335.874C186.093 336.21 186.532 336.663 186.859 337.232C187.185 337.801 187.349 338.417 187.349 339.08ZM183.807 336.91C182.724 336.91 182.085 337.419 181.889 338.436H185.557V338.338C185.519 337.946 185.328 337.61 184.983 337.33C184.637 337.05 184.245 336.91 183.807 336.91ZM196.552 335.37C197.196 335.37 197.779 335.538 198.302 335.874C198.824 336.201 199.235 336.658 199.534 337.246C199.842 337.834 199.996 338.501 199.996 339.248C199.996 339.995 199.846 340.667 199.548 341.264C199.249 341.852 198.838 342.314 198.316 342.65C197.802 342.977 197.233 343.14 196.608 343.14C196.16 343.14 195.735 343.051 195.334 342.874C194.942 342.687 194.615 342.463 194.354 342.202V342.286C194.354 342.529 194.274 342.734 194.116 342.902C193.957 343.061 193.756 343.14 193.514 343.14C193.271 343.14 193.07 343.061 192.912 342.902C192.753 342.743 192.674 342.538 192.674 342.286V333.494C192.674 333.251 192.753 333.051 192.912 332.892C193.07 332.724 193.271 332.64 193.514 332.64C193.756 332.64 193.957 332.724 194.116 332.892C194.274 333.051 194.354 333.251 194.354 333.494V336.42C194.578 336.14 194.89 335.897 195.292 335.692C195.693 335.477 196.113 335.37 196.552 335.37ZM196.342 341.6C196.939 341.6 197.429 341.376 197.812 340.928C198.194 340.48 198.386 339.92 198.386 339.248C198.386 338.576 198.194 338.021 197.812 337.582C197.438 337.134 196.948 336.91 196.342 336.91C195.735 336.91 195.24 337.134 194.858 337.582C194.475 338.021 194.284 338.576 194.284 339.248C194.284 339.92 194.475 340.48 194.858 340.928C195.24 341.376 195.735 341.6 196.342 341.6ZM208.116 339.08C208.107 339.304 208.018 339.486 207.85 339.626C207.682 339.766 207.486 339.836 207.262 339.836H202.642C202.754 340.387 203.011 340.821 203.412 341.138C203.814 341.446 204.266 341.6 204.77 341.6C205.153 341.6 205.452 341.567 205.666 341.502C205.881 341.427 206.049 341.353 206.17 341.278C206.301 341.194 206.39 341.138 206.436 341.11C206.604 341.026 206.763 340.984 206.912 340.984C207.108 340.984 207.276 341.054 207.416 341.194C207.556 341.334 207.626 341.497 207.626 341.684C207.626 341.936 207.496 342.165 207.234 342.37C206.973 342.585 206.623 342.767 206.184 342.916C205.746 343.065 205.302 343.14 204.854 343.14C204.07 343.14 203.384 342.977 202.796 342.65C202.218 342.323 201.77 341.875 201.452 341.306C201.135 340.727 200.976 340.079 200.976 339.36C200.976 338.557 201.144 337.853 201.48 337.246C201.816 336.639 202.26 336.177 202.81 335.86C203.361 335.533 203.949 335.37 204.574 335.37C205.19 335.37 205.769 335.538 206.31 335.874C206.861 336.21 207.3 336.663 207.626 337.232C207.953 337.801 208.116 338.417 208.116 339.08ZM204.574 336.91C203.492 336.91 202.852 337.419 202.656 338.436H206.324V338.338C206.287 337.946 206.096 337.61 205.75 337.33C205.405 337.05 205.013 336.91 204.574 336.91ZM209.083 341.838C208.999 341.726 208.957 341.586 208.957 341.418C208.957 341.175 209.079 340.97 209.321 340.802C209.452 340.718 209.587 340.676 209.727 340.676C209.923 340.676 210.11 340.765 210.287 340.942C210.567 341.231 210.857 341.446 211.155 341.586C211.463 341.726 211.832 341.796 212.261 341.796C212.989 341.768 213.353 341.493 213.353 340.97C213.353 340.699 213.227 340.494 212.975 340.354C212.733 340.214 212.35 340.074 211.827 339.934C211.286 339.785 210.843 339.635 210.497 339.486C210.161 339.337 209.867 339.113 209.615 338.814C209.373 338.506 209.251 338.095 209.251 337.582C209.251 337.134 209.377 336.747 209.629 336.42C209.891 336.084 210.227 335.827 210.637 335.65C211.057 335.463 211.501 335.37 211.967 335.37C212.443 335.37 212.919 335.459 213.395 335.636C213.871 335.813 214.245 336.075 214.515 336.42C214.637 336.569 214.697 336.737 214.697 336.924C214.697 337.139 214.609 337.316 214.431 337.456C214.301 337.559 214.151 337.61 213.983 337.61C213.778 337.61 213.61 337.545 213.479 337.414C213.311 337.209 213.092 337.045 212.821 336.924C212.56 336.803 212.261 336.742 211.925 336.742C211.216 336.742 210.861 336.999 210.861 337.512C210.861 337.717 210.927 337.885 211.057 338.016C211.188 338.137 211.351 338.235 211.547 338.31C211.753 338.375 212.037 338.459 212.401 338.562C212.905 338.702 213.325 338.847 213.661 338.996C213.997 339.145 214.282 339.374 214.515 339.682C214.749 339.99 214.865 340.396 214.865 340.9C214.865 341.357 214.73 341.759 214.459 342.104C214.189 342.44 213.839 342.697 213.409 342.874C212.989 343.051 212.555 343.14 212.107 343.14C211.491 343.14 210.917 343.037 210.385 342.832C209.853 342.627 209.419 342.295 209.083 341.838ZM219.883 341.418C220.014 341.418 220.131 341.483 220.233 341.614C220.345 341.735 220.401 341.899 220.401 342.104C220.401 342.356 220.261 342.571 219.981 342.748C219.711 342.916 219.403 343 219.057 343C218.479 343 217.989 342.879 217.587 342.636C217.195 342.384 216.999 341.857 216.999 341.054V337.19H216.355C216.131 337.19 215.945 337.115 215.795 336.966C215.646 336.817 215.571 336.63 215.571 336.406C215.571 336.191 215.646 336.014 215.795 335.874C215.945 335.725 216.131 335.65 216.355 335.65H216.999V334.754C216.999 334.511 217.079 334.311 217.237 334.152C217.405 333.984 217.611 333.9 217.853 333.9C218.087 333.9 218.283 333.984 218.441 334.152C218.6 334.311 218.679 334.511 218.679 334.754V335.65H219.673C219.897 335.65 220.084 335.725 220.233 335.874C220.383 336.023 220.457 336.21 220.457 336.434C220.457 336.649 220.383 336.831 220.233 336.98C220.084 337.12 219.897 337.19 219.673 337.19H218.679V340.984C218.679 341.18 218.731 341.325 218.833 341.418C218.936 341.502 219.076 341.544 219.253 341.544C219.328 341.544 219.431 341.525 219.561 341.488C219.673 341.441 219.781 341.418 219.883 341.418ZM225.49 341.838C225.406 341.726 225.364 341.586 225.364 341.418C225.364 341.175 225.485 340.97 225.728 340.802C225.858 340.718 225.994 340.676 226.134 340.676C226.33 340.676 226.516 340.765 226.694 340.942C226.974 341.231 227.263 341.446 227.562 341.586C227.87 341.726 228.238 341.796 228.668 341.796C229.396 341.768 229.76 341.493 229.76 340.97C229.76 340.699 229.634 340.494 229.382 340.354C229.139 340.214 228.756 340.074 228.234 339.934C227.692 339.785 227.249 339.635 226.904 339.486C226.568 339.337 226.274 339.113 226.022 338.814C225.779 338.506 225.658 338.095 225.658 337.582C225.658 337.134 225.784 336.747 226.036 336.42C226.297 336.084 226.633 335.827 227.044 335.65C227.464 335.463 227.907 335.37 228.374 335.37C228.85 335.37 229.326 335.459 229.802 335.636C230.278 335.813 230.651 336.075 230.922 336.42C231.043 336.569 231.104 336.737 231.104 336.924C231.104 337.139 231.015 337.316 230.838 337.456C230.707 337.559 230.558 337.61 230.39 337.61C230.184 337.61 230.016 337.545 229.886 337.414C229.718 337.209 229.498 337.045 229.228 336.924C228.966 336.803 228.668 336.742 228.332 336.742C227.622 336.742 227.268 336.999 227.268 337.512C227.268 337.717 227.333 337.885 227.464 338.016C227.594 338.137 227.758 338.235 227.954 338.31C228.159 338.375 228.444 338.459 228.808 338.562C229.312 338.702 229.732 338.847 230.068 338.996C230.404 339.145 230.688 339.374 230.922 339.682C231.155 339.99 231.272 340.396 231.272 340.9C231.272 341.357 231.136 341.759 230.866 342.104C230.595 342.44 230.245 342.697 229.816 342.874C229.396 343.051 228.962 343.14 228.514 343.14C227.898 343.14 227.324 343.037 226.792 342.832C226.26 342.627 225.826 342.295 225.49 341.838ZM236.29 341.418C236.42 341.418 236.537 341.483 236.64 341.614C236.752 341.735 236.808 341.899 236.808 342.104C236.808 342.356 236.668 342.571 236.388 342.748C236.117 342.916 235.809 343 235.464 343C234.885 343 234.395 342.879 233.994 342.636C233.602 342.384 233.406 341.857 233.406 341.054V337.19H232.762C232.538 337.19 232.351 337.115 232.202 336.966C232.052 336.817 231.978 336.63 231.978 336.406C231.978 336.191 232.052 336.014 232.202 335.874C232.351 335.725 232.538 335.65 232.762 335.65H233.406V334.754C233.406 334.511 233.485 334.311 233.644 334.152C233.812 333.984 234.017 333.9 234.26 333.9C234.493 333.9 234.689 333.984 234.848 334.152C235.006 334.311 235.086 334.511 235.086 334.754V335.65H236.08C236.304 335.65 236.49 335.725 236.64 335.874C236.789 336.023 236.864 336.21 236.864 336.434C236.864 336.649 236.789 336.831 236.64 336.98C236.49 337.12 236.304 337.19 236.08 337.19H235.086V340.984C235.086 341.18 235.137 341.325 235.24 341.418C235.342 341.502 235.482 341.544 235.66 341.544C235.734 341.544 235.837 341.525 235.968 341.488C236.08 341.441 236.187 341.418 236.29 341.418ZM245.534 339.262C245.534 340.009 245.366 340.681 245.03 341.278C244.694 341.866 244.232 342.323 243.644 342.65C243.065 342.977 242.426 343.14 241.726 343.14C241.016 343.14 240.372 342.977 239.794 342.65C239.215 342.323 238.758 341.866 238.422 341.278C238.086 340.681 237.918 340.009 237.918 339.262C237.918 338.515 238.086 337.848 238.422 337.26C238.758 336.663 239.215 336.201 239.794 335.874C240.372 335.538 241.016 335.37 241.726 335.37C242.426 335.37 243.065 335.538 243.644 335.874C244.232 336.201 244.694 336.663 245.03 337.26C245.366 337.848 245.534 338.515 245.534 339.262ZM243.854 339.262C243.854 338.805 243.756 338.399 243.56 338.044C243.373 337.68 243.116 337.4 242.79 337.204C242.472 337.008 242.118 336.91 241.726 336.91C241.334 336.91 240.974 337.008 240.648 337.204C240.33 337.4 240.074 337.68 239.878 338.044C239.691 338.399 239.598 338.805 239.598 339.262C239.598 339.719 239.691 340.125 239.878 340.48C240.074 340.835 240.33 341.11 240.648 341.306C240.974 341.502 241.334 341.6 241.726 341.6C242.118 341.6 242.472 341.502 242.79 341.306C243.116 341.11 243.373 340.835 243.56 340.48C243.756 340.125 243.854 339.719 243.854 339.262ZM250.199 335.37C250.993 335.37 251.632 335.496 252.117 335.748C252.603 335.991 252.845 336.317 252.845 336.728C252.845 336.933 252.785 337.115 252.663 337.274C252.542 337.423 252.383 337.498 252.187 337.498C252.038 337.498 251.917 337.479 251.823 337.442C251.73 337.395 251.637 337.339 251.543 337.274C251.459 337.199 251.375 337.139 251.291 337.092C251.198 337.045 251.058 337.003 250.871 336.966C250.694 336.929 250.549 336.91 250.437 336.91C249.737 336.91 249.187 337.129 248.785 337.568C248.393 337.997 248.197 338.562 248.197 339.262C248.197 339.934 248.398 340.494 248.799 340.942C249.201 341.381 249.714 341.6 250.339 341.6C250.797 341.6 251.137 341.544 251.361 341.432C251.417 341.404 251.492 341.357 251.585 341.292C251.688 341.217 251.781 341.161 251.865 341.124C251.949 341.087 252.052 341.068 252.173 341.068C252.407 341.068 252.589 341.143 252.719 341.292C252.859 341.441 252.929 341.633 252.929 341.866C252.929 342.09 252.799 342.3 252.537 342.496C252.276 342.692 251.931 342.851 251.501 342.972C251.072 343.084 250.615 343.14 250.129 343.14C249.411 343.14 248.776 342.972 248.225 342.636C247.684 342.3 247.264 341.838 246.965 341.25C246.667 340.653 246.517 339.99 246.517 339.262C246.517 338.506 246.671 337.834 246.979 337.246C247.297 336.658 247.735 336.201 248.295 335.874C248.855 335.538 249.49 335.37 250.199 335.37ZM260.372 341.53C260.55 341.717 260.638 341.927 260.638 342.16C260.638 342.393 260.545 342.589 260.358 342.748C260.181 342.907 259.99 342.986 259.784 342.986C259.542 342.986 259.336 342.893 259.168 342.706L256.648 340.046L255.962 340.676V342.146C255.962 342.389 255.883 342.594 255.724 342.762C255.566 342.921 255.365 343 255.122 343C254.88 343 254.679 342.921 254.52 342.762C254.362 342.594 254.282 342.389 254.282 342.146V333.494C254.282 333.251 254.362 333.051 254.52 332.892C254.679 332.724 254.88 332.64 255.122 332.64C255.365 332.64 255.566 332.724 255.724 332.892C255.883 333.051 255.962 333.251 255.962 333.494V338.674L258.958 335.776C259.136 335.599 259.341 335.51 259.574 335.51C259.78 335.51 259.962 335.599 260.12 335.776C260.288 335.944 260.372 336.117 260.372 336.294C260.372 336.518 260.26 336.728 260.036 336.924L257.922 338.87L260.372 341.53ZM272.757 339.08C272.748 339.304 272.659 339.486 272.491 339.626C272.323 339.766 272.127 339.836 271.903 339.836H267.283C267.395 340.387 267.652 340.821 268.053 341.138C268.454 341.446 268.907 341.6 269.411 341.6C269.794 341.6 270.092 341.567 270.307 341.502C270.522 341.427 270.69 341.353 270.811 341.278C270.942 341.194 271.03 341.138 271.077 341.11C271.245 341.026 271.404 340.984 271.553 340.984C271.749 340.984 271.917 341.054 272.057 341.194C272.197 341.334 272.267 341.497 272.267 341.684C272.267 341.936 272.136 342.165 271.875 342.37C271.614 342.585 271.264 342.767 270.825 342.916C270.386 343.065 269.943 343.14 269.495 343.14C268.711 343.14 268.025 342.977 267.437 342.65C266.858 342.323 266.41 341.875 266.093 341.306C265.776 340.727 265.617 340.079 265.617 339.36C265.617 338.557 265.785 337.853 266.121 337.246C266.457 336.639 266.9 336.177 267.451 335.86C268.002 335.533 268.59 335.37 269.215 335.37C269.831 335.37 270.41 335.538 270.951 335.874C271.502 336.21 271.94 336.663 272.267 337.232C272.594 337.801 272.757 338.417 272.757 339.08ZM269.215 336.91C268.132 336.91 267.493 337.419 267.297 338.436H270.965V338.338C270.928 337.946 270.736 337.61 270.391 337.33C270.046 337.05 269.654 336.91 269.215 336.91ZM279.674 341.67C279.795 341.819 279.856 341.987 279.856 342.174C279.856 342.407 279.767 342.608 279.59 342.776C279.413 342.944 279.217 343.028 279.002 343.028C278.731 343.028 278.503 342.907 278.316 342.664L276.636 340.578L274.998 342.664C274.914 342.776 274.811 342.865 274.69 342.93C274.578 342.986 274.457 343.014 274.326 343.014C274.13 343.014 273.943 342.939 273.766 342.79C273.589 342.641 273.5 342.468 273.5 342.272C273.5 342.085 273.57 341.908 273.71 341.74L275.656 339.36L273.64 336.854C273.519 336.705 273.458 336.537 273.458 336.35C273.458 336.117 273.542 335.921 273.71 335.762C273.887 335.594 274.088 335.51 274.312 335.51C274.583 335.51 274.811 335.627 274.998 335.86L276.72 338.002L278.316 335.888C278.493 335.636 278.717 335.51 278.988 335.51C279.212 335.51 279.399 335.589 279.548 335.748C279.707 335.897 279.786 336.07 279.786 336.266C279.786 336.471 279.721 336.653 279.59 336.812L277.658 339.164L279.674 341.67ZM284.242 335.37C285.036 335.37 285.675 335.496 286.16 335.748C286.646 335.991 286.888 336.317 286.888 336.728C286.888 336.933 286.828 337.115 286.706 337.274C286.585 337.423 286.426 337.498 286.23 337.498C286.081 337.498 285.96 337.479 285.866 337.442C285.773 337.395 285.68 337.339 285.586 337.274C285.502 337.199 285.418 337.139 285.334 337.092C285.241 337.045 285.101 337.003 284.914 336.966C284.737 336.929 284.592 336.91 284.48 336.91C283.78 336.91 283.23 337.129 282.828 337.568C282.436 337.997 282.24 338.562 282.24 339.262C282.24 339.934 282.441 340.494 282.842 340.942C283.244 341.381 283.757 341.6 284.382 341.6C284.84 341.6 285.18 341.544 285.404 341.432C285.46 341.404 285.535 341.357 285.628 341.292C285.731 341.217 285.824 341.161 285.908 341.124C285.992 341.087 286.095 341.068 286.216 341.068C286.45 341.068 286.632 341.143 286.762 341.292C286.902 341.441 286.972 341.633 286.972 341.866C286.972 342.09 286.842 342.3 286.58 342.496C286.319 342.692 285.974 342.851 285.544 342.972C285.115 343.084 284.658 343.14 284.172 343.14C283.454 343.14 282.819 342.972 282.268 342.636C281.727 342.3 281.307 341.838 281.008 341.25C280.71 340.653 280.56 339.99 280.56 339.262C280.56 338.506 280.714 337.834 281.022 337.246C281.34 336.658 281.778 336.201 282.338 335.874C282.898 335.538 283.533 335.37 284.242 335.37ZM292.119 335.37C293.043 335.37 293.683 335.655 294.037 336.224C294.392 336.784 294.569 337.563 294.569 338.562V342.146C294.569 342.389 294.49 342.594 294.331 342.762C294.173 342.921 293.972 343 293.729 343C293.487 343 293.286 342.921 293.127 342.762C292.969 342.594 292.889 342.389 292.889 342.146V338.562C292.889 338.049 292.787 337.647 292.581 337.358C292.385 337.059 292.035 336.91 291.531 336.91C291.009 336.91 290.598 337.069 290.299 337.386C290.01 337.694 289.865 338.086 289.865 338.562V342.146C289.865 342.389 289.786 342.594 289.627 342.762C289.469 342.921 289.268 343 289.025 343C288.783 343 288.582 342.921 288.423 342.762C288.265 342.594 288.185 342.389 288.185 342.146V333.494C288.185 333.251 288.265 333.051 288.423 332.892C288.582 332.724 288.783 332.64 289.025 332.64C289.268 332.64 289.469 332.724 289.627 332.892C289.786 333.051 289.865 333.251 289.865 333.494V336.588C290.117 336.252 290.435 335.967 290.817 335.734C291.209 335.491 291.643 335.37 292.119 335.37ZM302.451 335.37C302.693 335.37 302.894 335.449 303.053 335.608C303.211 335.767 303.291 335.972 303.291 336.224V342.146C303.291 342.389 303.211 342.594 303.053 342.762C302.894 342.921 302.693 343 302.451 343C302.208 343 302.007 342.921 301.849 342.762C301.699 342.603 301.62 342.403 301.611 342.16C301.377 342.431 301.06 342.664 300.659 342.86C300.267 343.047 299.851 343.14 299.413 343.14C298.769 343.14 298.185 342.977 297.663 342.65C297.14 342.314 296.725 341.852 296.417 341.264C296.118 340.676 295.969 340.009 295.969 339.262C295.969 338.515 296.118 337.848 296.417 337.26C296.715 336.663 297.121 336.201 297.635 335.874C298.157 335.538 298.731 335.37 299.357 335.37C299.805 335.37 300.225 335.454 300.617 335.622C301.009 335.781 301.34 335.986 301.611 336.238V336.224C301.611 335.981 301.69 335.781 301.849 335.622C302.007 335.454 302.208 335.37 302.451 335.37ZM299.623 341.6C300.229 341.6 300.724 341.381 301.107 340.942C301.489 340.494 301.681 339.934 301.681 339.262C301.681 338.59 301.489 338.03 301.107 337.582C300.724 337.134 300.229 336.91 299.623 336.91C299.025 336.91 298.535 337.134 298.153 337.582C297.77 338.03 297.579 338.59 297.579 339.262C297.579 339.934 297.765 340.494 298.139 340.942C298.521 341.381 299.016 341.6 299.623 341.6ZM309.115 335.37C310.067 335.37 310.725 335.655 311.089 336.224C311.453 336.784 311.635 337.563 311.635 338.562V342.146C311.635 342.389 311.556 342.594 311.397 342.762C311.239 342.921 311.038 343 310.795 343C310.553 343 310.352 342.921 310.193 342.762C310.035 342.594 309.955 342.389 309.955 342.146V338.562C309.955 338.049 309.848 337.647 309.633 337.358C309.419 337.059 309.05 336.91 308.527 336.91C307.986 336.91 307.561 337.069 307.253 337.386C306.945 337.694 306.791 338.086 306.791 338.562V342.146C306.791 342.389 306.712 342.594 306.553 342.762C306.395 342.921 306.194 343 305.951 343C305.709 343 305.508 342.921 305.349 342.762C305.191 342.594 305.111 342.389 305.111 342.146V336.364C305.111 336.121 305.191 335.921 305.349 335.762C305.508 335.594 305.709 335.51 305.951 335.51C306.194 335.51 306.395 335.594 306.553 335.762C306.712 335.921 306.791 336.121 306.791 336.364V336.602C307.043 336.266 307.37 335.977 307.771 335.734C308.182 335.491 308.63 335.37 309.115 335.37ZM319.653 335.37C319.896 335.37 320.096 335.449 320.255 335.608C320.414 335.767 320.493 335.972 320.493 336.224V342.454C320.493 343.593 320.138 344.433 319.429 344.974C318.729 345.525 317.838 345.8 316.755 345.8C316.475 345.8 316.088 345.753 315.593 345.66C315.108 345.567 314.762 345.473 314.557 345.38C314.1 345.184 313.871 344.913 313.871 344.568C313.871 344.503 313.885 344.428 313.913 344.344C313.969 344.139 314.062 343.98 314.193 343.868C314.333 343.765 314.482 343.714 314.641 343.714C314.734 343.714 314.823 343.728 314.907 343.756C314.944 343.765 315.173 343.849 315.593 344.008C316.022 344.176 316.41 344.26 316.755 344.26C317.446 344.26 317.959 344.12 318.295 343.84C318.64 343.569 318.813 343.182 318.813 342.678V342.006C318.608 342.295 318.295 342.557 317.875 342.79C317.464 343.023 317.021 343.14 316.545 343.14C315.892 343.14 315.294 342.977 314.753 342.65C314.221 342.314 313.801 341.852 313.493 341.264C313.185 340.676 313.031 340.009 313.031 339.262C313.031 338.515 313.18 337.848 313.479 337.26C313.787 336.663 314.202 336.201 314.725 335.874C315.257 335.538 315.845 335.37 316.489 335.37C316.965 335.37 317.408 335.468 317.819 335.664C318.23 335.86 318.561 336.098 318.813 336.378V336.224C318.813 335.981 318.892 335.781 319.051 335.622C319.21 335.454 319.41 335.37 319.653 335.37ZM316.755 341.6C317.38 341.6 317.889 341.381 318.281 340.942C318.682 340.494 318.883 339.934 318.883 339.262C318.883 338.59 318.682 338.03 318.281 337.582C317.889 337.134 317.38 336.91 316.755 336.91C316.13 336.91 315.621 337.134 315.229 337.582C314.837 338.03 314.641 338.59 314.641 339.262C314.641 339.934 314.837 340.494 315.229 340.942C315.621 341.381 316.13 341.6 316.755 341.6ZM328.757 339.08C328.748 339.304 328.659 339.486 328.491 339.626C328.323 339.766 328.127 339.836 327.903 339.836H323.283C323.395 340.387 323.652 340.821 324.053 341.138C324.454 341.446 324.907 341.6 325.411 341.6C325.794 341.6 326.092 341.567 326.307 341.502C326.522 341.427 326.69 341.353 326.811 341.278C326.942 341.194 327.03 341.138 327.077 341.11C327.245 341.026 327.404 340.984 327.553 340.984C327.749 340.984 327.917 341.054 328.057 341.194C328.197 341.334 328.267 341.497 328.267 341.684C328.267 341.936 328.136 342.165 327.875 342.37C327.614 342.585 327.264 342.767 326.825 342.916C326.386 343.065 325.943 343.14 325.495 343.14C324.711 343.14 324.025 342.977 323.437 342.65C322.858 342.323 322.41 341.875 322.093 341.306C321.776 340.727 321.617 340.079 321.617 339.36C321.617 338.557 321.785 337.853 322.121 337.246C322.457 336.639 322.9 336.177 323.451 335.86C324.002 335.533 324.59 335.37 325.215 335.37C325.831 335.37 326.41 335.538 326.951 335.874C327.502 336.21 327.94 336.663 328.267 337.232C328.594 337.801 328.757 338.417 328.757 339.08ZM325.215 336.91C324.132 336.91 323.493 337.419 323.297 338.436H326.965V338.338C326.928 337.946 326.736 337.61 326.391 337.33C326.046 337.05 325.654 336.91 325.215 336.91ZM153.124 359.418C153.254 359.418 153.371 359.483 153.474 359.614C153.586 359.735 153.642 359.899 153.642 360.104C153.642 360.356 153.502 360.571 153.222 360.748C152.951 360.916 152.643 361 152.298 361C151.719 361 151.229 360.879 150.828 360.636C150.436 360.384 150.24 359.857 150.24 359.054V355.19H149.596C149.372 355.19 149.185 355.115 149.036 354.966C148.886 354.817 148.812 354.63 148.812 354.406C148.812 354.191 148.886 354.014 149.036 353.874C149.185 353.725 149.372 353.65 149.596 353.65H150.24V352.754C150.24 352.511 150.319 352.311 150.478 352.152C150.646 351.984 150.851 351.9 151.094 351.9C151.327 351.9 151.523 351.984 151.682 352.152C151.84 352.311 151.92 352.511 151.92 352.754V353.65H152.914C153.138 353.65 153.324 353.725 153.474 353.874C153.623 354.023 153.698 354.21 153.698 354.434C153.698 354.649 153.623 354.831 153.474 354.98C153.324 355.12 153.138 355.19 152.914 355.19H151.92V358.984C151.92 359.18 151.971 359.325 152.074 359.418C152.176 359.502 152.316 359.544 152.494 359.544C152.568 359.544 152.671 359.525 152.802 359.488C152.914 359.441 153.021 359.418 153.124 359.418ZM159.132 353.37C159.412 353.37 159.645 353.449 159.832 353.608C160.028 353.767 160.126 353.953 160.126 354.168C160.126 354.457 160.051 354.677 159.902 354.826C159.753 354.966 159.575 355.036 159.37 355.036C159.23 355.036 159.071 355.003 158.894 354.938C158.866 354.929 158.801 354.91 158.698 354.882C158.605 354.854 158.502 354.84 158.39 354.84C158.147 354.84 157.914 354.915 157.69 355.064C157.466 355.213 157.279 355.442 157.13 355.75C156.99 356.049 156.92 356.408 156.92 356.828V360.146C156.92 360.389 156.841 360.594 156.682 360.762C156.523 360.921 156.323 361 156.08 361C155.837 361 155.637 360.921 155.478 360.762C155.319 360.594 155.24 360.389 155.24 360.146V354.364C155.24 354.121 155.319 353.921 155.478 353.762C155.637 353.594 155.837 353.51 156.08 353.51C156.323 353.51 156.523 353.594 156.682 353.762C156.841 353.921 156.92 354.121 156.92 354.364V354.546C157.135 354.163 157.443 353.874 157.844 353.678C158.245 353.473 158.675 353.37 159.132 353.37ZM167.208 353.37C167.451 353.37 167.652 353.449 167.81 353.608C167.969 353.767 168.048 353.972 168.048 354.224V360.146C168.048 360.389 167.969 360.594 167.81 360.762C167.652 360.921 167.451 361 167.208 361C166.966 361 166.765 360.921 166.606 360.762C166.457 360.603 166.378 360.403 166.368 360.16C166.135 360.431 165.818 360.664 165.416 360.86C165.024 361.047 164.609 361.14 164.17 361.14C163.526 361.14 162.943 360.977 162.42 360.65C161.898 360.314 161.482 359.852 161.174 359.264C160.876 358.676 160.726 358.009 160.726 357.262C160.726 356.515 160.876 355.848 161.174 355.26C161.473 354.663 161.879 354.201 162.392 353.874C162.915 353.538 163.489 353.37 164.114 353.37C164.562 353.37 164.982 353.454 165.374 353.622C165.766 353.781 166.098 353.986 166.368 354.238V354.224C166.368 353.981 166.448 353.781 166.606 353.622C166.765 353.454 166.966 353.37 167.208 353.37ZM164.38 359.6C164.987 359.6 165.482 359.381 165.864 358.942C166.247 358.494 166.438 357.934 166.438 357.262C166.438 356.59 166.247 356.03 165.864 355.582C165.482 355.134 164.987 354.91 164.38 354.91C163.783 354.91 163.293 355.134 162.91 355.582C162.528 356.03 162.336 356.59 162.336 357.262C162.336 357.934 162.523 358.494 162.896 358.942C163.279 359.381 163.774 359.6 164.38 359.6ZM171.451 360.146C171.451 360.389 171.372 360.594 171.213 360.762C171.054 360.921 170.854 361 170.611 361C170.368 361 170.168 360.921 170.009 360.762C169.85 360.594 169.771 360.389 169.771 360.146V354.364C169.771 354.121 169.85 353.921 170.009 353.762C170.168 353.594 170.368 353.51 170.611 353.51C170.854 353.51 171.054 353.594 171.213 353.762C171.372 353.921 171.451 354.121 171.451 354.364V360.146ZM170.597 352.6C170.28 352.6 170.056 352.549 169.925 352.446C169.794 352.343 169.729 352.161 169.729 351.9V351.634C169.729 351.373 169.799 351.191 169.939 351.088C170.079 350.985 170.303 350.934 170.611 350.934C170.938 350.934 171.166 350.985 171.297 351.088C171.428 351.191 171.493 351.373 171.493 351.634V351.9C171.493 352.171 171.423 352.357 171.283 352.46C171.152 352.553 170.924 352.6 170.597 352.6ZM177.182 353.37C178.134 353.37 178.792 353.655 179.156 354.224C179.52 354.784 179.702 355.563 179.702 356.562V360.146C179.702 360.389 179.622 360.594 179.464 360.762C179.305 360.921 179.104 361 178.862 361C178.619 361 178.418 360.921 178.26 360.762C178.101 360.594 178.022 360.389 178.022 360.146V356.562C178.022 356.049 177.914 355.647 177.7 355.358C177.485 355.059 177.116 354.91 176.594 354.91C176.052 354.91 175.628 355.069 175.32 355.386C175.012 355.694 174.858 356.086 174.858 356.562V360.146C174.858 360.389 174.778 360.594 174.62 360.762C174.461 360.921 174.26 361 174.018 361C173.775 361 173.574 360.921 173.416 360.762C173.257 360.594 173.178 360.389 173.178 360.146V354.364C173.178 354.121 173.257 353.921 173.416 353.762C173.574 353.594 173.775 353.51 174.018 353.51C174.26 353.51 174.461 353.594 174.62 353.762C174.778 353.921 174.858 354.121 174.858 354.364V354.602C175.11 354.266 175.436 353.977 175.838 353.734C176.248 353.491 176.696 353.37 177.182 353.37ZM183.099 360.146C183.099 360.389 183.02 360.594 182.861 360.762C182.703 360.921 182.502 361 182.259 361C182.017 361 181.816 360.921 181.657 360.762C181.499 360.594 181.419 360.389 181.419 360.146V354.364C181.419 354.121 181.499 353.921 181.657 353.762C181.816 353.594 182.017 353.51 182.259 353.51C182.502 353.51 182.703 353.594 182.861 353.762C183.02 353.921 183.099 354.121 183.099 354.364V360.146ZM182.245 352.6C181.928 352.6 181.704 352.549 181.573 352.446C181.443 352.343 181.377 352.161 181.377 351.9V351.634C181.377 351.373 181.447 351.191 181.587 351.088C181.727 350.985 181.951 350.934 182.259 350.934C182.586 350.934 182.815 350.985 182.945 351.088C183.076 351.191 183.141 351.373 183.141 351.634V351.9C183.141 352.171 183.071 352.357 182.931 352.46C182.801 352.553 182.572 352.6 182.245 352.6ZM188.83 353.37C189.782 353.37 190.44 353.655 190.804 354.224C191.168 354.784 191.35 355.563 191.35 356.562V360.146C191.35 360.389 191.271 360.594 191.112 360.762C190.953 360.921 190.753 361 190.51 361C190.267 361 190.067 360.921 189.908 360.762C189.749 360.594 189.67 360.389 189.67 360.146V356.562C189.67 356.049 189.563 355.647 189.348 355.358C189.133 355.059 188.765 354.91 188.242 354.91C187.701 354.91 187.276 355.069 186.968 355.386C186.66 355.694 186.506 356.086 186.506 356.562V360.146C186.506 360.389 186.427 360.594 186.268 360.762C186.109 360.921 185.909 361 185.666 361C185.423 361 185.223 360.921 185.064 360.762C184.905 360.594 184.826 360.389 184.826 360.146V354.364C184.826 354.121 184.905 353.921 185.064 353.762C185.223 353.594 185.423 353.51 185.666 353.51C185.909 353.51 186.109 353.594 186.268 353.762C186.427 353.921 186.506 354.121 186.506 354.364V354.602C186.758 354.266 187.085 353.977 187.486 353.734C187.897 353.491 188.345 353.37 188.83 353.37ZM199.368 353.37C199.611 353.37 199.811 353.449 199.97 353.608C200.129 353.767 200.208 353.972 200.208 354.224V360.454C200.208 361.593 199.853 362.433 199.144 362.974C198.444 363.525 197.553 363.8 196.47 363.8C196.19 363.8 195.803 363.753 195.308 363.66C194.823 363.567 194.477 363.473 194.272 363.38C193.815 363.184 193.586 362.913 193.586 362.568C193.586 362.503 193.6 362.428 193.628 362.344C193.684 362.139 193.777 361.98 193.908 361.868C194.048 361.765 194.197 361.714 194.356 361.714C194.449 361.714 194.538 361.728 194.622 361.756C194.659 361.765 194.888 361.849 195.308 362.008C195.737 362.176 196.125 362.26 196.47 362.26C197.161 362.26 197.674 362.12 198.01 361.84C198.355 361.569 198.528 361.182 198.528 360.678V360.006C198.323 360.295 198.01 360.557 197.59 360.79C197.179 361.023 196.736 361.14 196.26 361.14C195.607 361.14 195.009 360.977 194.468 360.65C193.936 360.314 193.516 359.852 193.208 359.264C192.9 358.676 192.746 358.009 192.746 357.262C192.746 356.515 192.895 355.848 193.194 355.26C193.502 354.663 193.917 354.201 194.44 353.874C194.972 353.538 195.56 353.37 196.204 353.37C196.68 353.37 197.123 353.468 197.534 353.664C197.945 353.86 198.276 354.098 198.528 354.378V354.224C198.528 353.981 198.607 353.781 198.766 353.622C198.925 353.454 199.125 353.37 199.368 353.37ZM196.47 359.6C197.095 359.6 197.604 359.381 197.996 358.942C198.397 358.494 198.598 357.934 198.598 357.262C198.598 356.59 198.397 356.03 197.996 355.582C197.604 355.134 197.095 354.91 196.47 354.91C195.845 354.91 195.336 355.134 194.944 355.582C194.552 356.03 194.356 356.59 194.356 357.262C194.356 357.934 194.552 358.494 194.944 358.942C195.336 359.381 195.845 359.6 196.47 359.6ZM209.827 353.37C210.471 353.37 211.054 353.538 211.577 353.874C212.1 354.201 212.51 354.658 212.809 355.246C213.117 355.834 213.271 356.501 213.271 357.248C213.271 357.995 213.122 358.667 212.823 359.264C212.524 359.852 212.114 360.314 211.591 360.65C211.078 360.977 210.508 361.14 209.883 361.14C209.435 361.14 209.01 361.051 208.609 360.874C208.217 360.687 207.89 360.463 207.629 360.202V362.946C207.629 363.189 207.55 363.389 207.391 363.548C207.232 363.716 207.032 363.8 206.789 363.8C206.546 363.8 206.346 363.721 206.187 363.562C206.028 363.403 205.949 363.198 205.949 362.946V354.364C205.949 354.121 206.028 353.921 206.187 353.762C206.346 353.594 206.546 353.51 206.789 353.51C207.032 353.51 207.232 353.594 207.391 353.762C207.55 353.921 207.629 354.121 207.629 354.364V354.42C207.853 354.14 208.166 353.897 208.567 353.692C208.968 353.477 209.388 353.37 209.827 353.37ZM209.617 359.6C210.214 359.6 210.704 359.376 211.087 358.928C211.47 358.48 211.661 357.92 211.661 357.248C211.661 356.576 211.47 356.021 211.087 355.582C210.714 355.134 210.224 354.91 209.617 354.91C209.01 354.91 208.516 355.134 208.133 355.582C207.75 356.021 207.559 356.576 207.559 357.248C207.559 357.92 207.75 358.48 208.133 358.928C208.516 359.376 209.01 359.6 209.617 359.6ZM216.492 360.146C216.492 360.389 216.408 360.594 216.24 360.762C216.081 360.921 215.88 361 215.638 361C215.404 361 215.208 360.921 215.05 360.762C214.891 360.594 214.812 360.389 214.812 360.146V351.494C214.812 351.251 214.891 351.051 215.05 350.892C215.218 350.724 215.423 350.64 215.666 350.64C215.899 350.64 216.095 350.724 216.254 350.892C216.412 351.051 216.492 351.251 216.492 351.494V360.146ZM224.507 353.37C224.75 353.37 224.95 353.449 225.109 353.608C225.268 353.767 225.347 353.972 225.347 354.224V360.146C225.347 360.389 225.268 360.594 225.109 360.762C224.95 360.921 224.75 361 224.507 361C224.264 361 224.064 360.921 223.905 360.762C223.756 360.603 223.676 360.403 223.667 360.16C223.434 360.431 223.116 360.664 222.715 360.86C222.323 361.047 221.908 361.14 221.469 361.14C220.825 361.14 220.242 360.977 219.719 360.65C219.196 360.314 218.781 359.852 218.473 359.264C218.174 358.676 218.025 358.009 218.025 357.262C218.025 356.515 218.174 355.848 218.473 355.26C218.772 354.663 219.178 354.201 219.691 353.874C220.214 353.538 220.788 353.37 221.413 353.37C221.861 353.37 222.281 353.454 222.673 353.622C223.065 353.781 223.396 353.986 223.667 354.238V354.224C223.667 353.981 223.746 353.781 223.905 353.622C224.064 353.454 224.264 353.37 224.507 353.37ZM221.679 359.6C222.286 359.6 222.78 359.381 223.163 358.942C223.546 358.494 223.737 357.934 223.737 357.262C223.737 356.59 223.546 356.03 223.163 355.582C222.78 355.134 222.286 354.91 221.679 354.91C221.082 354.91 220.592 355.134 220.209 355.582C219.826 356.03 219.635 356.59 219.635 357.262C219.635 357.934 219.822 358.494 220.195 358.942C220.578 359.381 221.072 359.6 221.679 359.6ZM230.78 359.418C230.91 359.418 231.027 359.483 231.13 359.614C231.242 359.735 231.298 359.899 231.298 360.104C231.298 360.356 231.158 360.571 230.878 360.748C230.607 360.916 230.299 361 229.954 361C229.375 361 228.885 360.879 228.484 360.636C228.092 360.384 227.896 359.857 227.896 359.054V355.19H227.252C227.028 355.19 226.841 355.115 226.692 354.966C226.542 354.817 226.468 354.63 226.468 354.406C226.468 354.191 226.542 354.014 226.692 353.874C226.841 353.725 227.028 353.65 227.252 353.65H227.896V352.754C227.896 352.511 227.975 352.311 228.134 352.152C228.302 351.984 228.507 351.9 228.75 351.9C228.983 351.9 229.179 351.984 229.338 352.152C229.496 352.311 229.576 352.511 229.576 352.754V353.65H230.57C230.794 353.65 230.98 353.725 231.13 353.874C231.279 354.023 231.354 354.21 231.354 354.434C231.354 354.649 231.279 354.831 231.13 354.98C230.98 355.12 230.794 355.19 230.57 355.19H229.576V358.984C229.576 359.18 229.627 359.325 229.73 359.418C229.832 359.502 229.972 359.544 230.15 359.544C230.224 359.544 230.327 359.525 230.458 359.488C230.57 359.441 230.677 359.418 230.78 359.418ZM236.139 352.124C235.822 352.124 235.598 352.217 235.467 352.404C235.336 352.581 235.271 352.777 235.271 352.992V353.65H236.545C236.769 353.65 236.956 353.725 237.105 353.874C237.254 354.014 237.329 354.196 237.329 354.42C237.329 354.644 237.254 354.831 237.105 354.98C236.956 355.12 236.769 355.19 236.545 355.19H235.271V360.146C235.271 360.389 235.192 360.594 235.033 360.762C234.874 360.921 234.674 361 234.431 361C234.188 361 233.988 360.921 233.829 360.762C233.67 360.594 233.591 360.389 233.591 360.146V355.19H232.835C232.611 355.19 232.424 355.12 232.275 354.98C232.126 354.831 232.051 354.644 232.051 354.42C232.051 354.196 232.126 354.014 232.275 353.874C232.424 353.725 232.611 353.65 232.835 353.65H233.591V353.006C233.591 352.306 233.829 351.737 234.305 351.298C234.79 350.859 235.486 350.64 236.391 350.64C236.736 350.64 237.035 350.71 237.287 350.85C237.548 350.99 237.679 351.205 237.679 351.494C237.679 351.718 237.614 351.9 237.483 352.04C237.352 352.18 237.194 352.25 237.007 352.25C236.96 352.25 236.909 352.245 236.853 352.236C236.806 352.227 236.755 352.217 236.699 352.208C236.475 352.152 236.288 352.124 236.139 352.124ZM245.575 357.262C245.575 358.009 245.407 358.681 245.071 359.278C244.735 359.866 244.273 360.323 243.685 360.65C243.106 360.977 242.467 361.14 241.767 361.14C241.057 361.14 240.413 360.977 239.835 360.65C239.256 360.323 238.799 359.866 238.463 359.278C238.127 358.681 237.959 358.009 237.959 357.262C237.959 356.515 238.127 355.848 238.463 355.26C238.799 354.663 239.256 354.201 239.835 353.874C240.413 353.538 241.057 353.37 241.767 353.37C242.467 353.37 243.106 353.538 243.685 353.874C244.273 354.201 244.735 354.663 245.071 355.26C245.407 355.848 245.575 356.515 245.575 357.262ZM243.895 357.262C243.895 356.805 243.797 356.399 243.601 356.044C243.414 355.68 243.157 355.4 242.831 355.204C242.513 355.008 242.159 354.91 241.767 354.91C241.375 354.91 241.015 355.008 240.689 355.204C240.371 355.4 240.115 355.68 239.919 356.044C239.732 356.399 239.639 356.805 239.639 357.262C239.639 357.719 239.732 358.125 239.919 358.48C240.115 358.835 240.371 359.11 240.689 359.306C241.015 359.502 241.375 359.6 241.767 359.6C242.159 359.6 242.513 359.502 242.831 359.306C243.157 359.11 243.414 358.835 243.601 358.48C243.797 358.125 243.895 357.719 243.895 357.262ZM250.87 353.37C251.15 353.37 251.384 353.449 251.57 353.608C251.766 353.767 251.864 353.953 251.864 354.168C251.864 354.457 251.79 354.677 251.64 354.826C251.491 354.966 251.314 355.036 251.108 355.036C250.968 355.036 250.81 355.003 250.632 354.938C250.604 354.929 250.539 354.91 250.436 354.882C250.343 354.854 250.24 354.84 250.128 354.84C249.886 354.84 249.652 354.915 249.428 355.064C249.204 355.213 249.018 355.442 248.868 355.75C248.728 356.049 248.658 356.408 248.658 356.828V360.146C248.658 360.389 248.579 360.594 248.42 360.762C248.262 360.921 248.061 361 247.818 361C247.576 361 247.375 360.921 247.216 360.762C247.058 360.594 246.978 360.389 246.978 360.146V354.364C246.978 354.121 247.058 353.921 247.216 353.762C247.375 353.594 247.576 353.51 247.818 353.51C248.061 353.51 248.262 353.594 248.42 353.762C248.579 353.921 248.658 354.121 248.658 354.364V354.546C248.873 354.163 249.181 353.874 249.582 353.678C249.984 353.473 250.413 353.37 250.87 353.37ZM261.687 353.37C262.611 353.37 263.25 353.655 263.605 354.224C263.959 354.784 264.137 355.563 264.137 356.562V360.146C264.137 360.389 264.057 360.594 263.899 360.762C263.74 360.921 263.539 361 263.297 361C263.054 361 262.853 360.921 262.695 360.762C262.536 360.594 262.457 360.389 262.457 360.146V356.562C262.457 356.049 262.354 355.647 262.149 355.358C261.953 355.059 261.603 354.91 261.099 354.91C260.576 354.91 260.165 355.069 259.867 355.386C259.577 355.694 259.433 356.086 259.433 356.562V360.146C259.433 360.389 259.353 360.594 259.195 360.762C259.036 360.921 258.835 361 258.593 361C258.35 361 258.149 360.921 257.991 360.762C257.832 360.594 257.753 360.389 257.753 360.146V356.562C257.753 356.049 257.65 355.647 257.445 355.358C257.249 355.059 256.899 354.91 256.395 354.91C255.872 354.91 255.461 355.069 255.163 355.386C254.873 355.694 254.729 356.086 254.729 356.562V360.146C254.729 360.389 254.649 360.594 254.491 360.762C254.332 360.921 254.131 361 253.889 361C253.646 361 253.445 360.921 253.287 360.762C253.128 360.594 253.049 360.389 253.049 360.146V354.364C253.049 354.121 253.128 353.921 253.287 353.762C253.445 353.594 253.646 353.51 253.889 353.51C254.131 353.51 254.332 353.594 254.491 353.762C254.649 353.921 254.729 354.121 254.729 354.364V354.588C254.981 354.252 255.298 353.967 255.681 353.734C256.073 353.491 256.507 353.37 256.983 353.37C258.159 353.37 258.91 353.883 259.237 354.91C259.451 354.518 259.773 354.163 260.203 353.846C260.641 353.529 261.136 353.37 261.687 353.37ZM277.075 357.262C277.075 358.009 276.907 358.681 276.571 359.278C276.235 359.866 275.773 360.323 275.185 360.65C274.606 360.977 273.967 361.14 273.267 361.14C272.557 361.14 271.913 360.977 271.335 360.65C270.756 360.323 270.299 359.866 269.963 359.278C269.627 358.681 269.459 358.009 269.459 357.262C269.459 356.515 269.627 355.848 269.963 355.26C270.299 354.663 270.756 354.201 271.335 353.874C271.913 353.538 272.557 353.37 273.267 353.37C273.967 353.37 274.606 353.538 275.185 353.874C275.773 354.201 276.235 354.663 276.571 355.26C276.907 355.848 277.075 356.515 277.075 357.262ZM275.395 357.262C275.395 356.805 275.297 356.399 275.101 356.044C274.914 355.68 274.657 355.4 274.331 355.204C274.013 355.008 273.659 354.91 273.267 354.91C272.875 354.91 272.515 355.008 272.189 355.204C271.871 355.4 271.615 355.68 271.419 356.044C271.232 356.399 271.139 356.805 271.139 357.262C271.139 357.719 271.232 358.125 271.419 358.48C271.615 358.835 271.871 359.11 272.189 359.306C272.515 359.502 272.875 359.6 273.267 359.6C273.659 359.6 274.013 359.502 274.331 359.306C274.657 359.11 274.914 358.835 275.101 358.48C275.297 358.125 275.395 357.719 275.395 357.262ZM282.482 353.37C283.434 353.37 284.092 353.655 284.456 354.224C284.82 354.784 285.002 355.563 285.002 356.562V360.146C285.002 360.389 284.923 360.594 284.764 360.762C284.606 360.921 284.405 361 284.162 361C283.92 361 283.719 360.921 283.56 360.762C283.402 360.594 283.322 360.389 283.322 360.146V356.562C283.322 356.049 283.215 355.647 283 355.358C282.786 355.059 282.417 354.91 281.894 354.91C281.353 354.91 280.928 355.069 280.62 355.386C280.312 355.694 280.158 356.086 280.158 356.562V360.146C280.158 360.389 280.079 360.594 279.92 360.762C279.762 360.921 279.561 361 279.318 361C279.076 361 278.875 360.921 278.716 360.762C278.558 360.594 278.478 360.389 278.478 360.146V354.364C278.478 354.121 278.558 353.921 278.716 353.762C278.875 353.594 279.076 353.51 279.318 353.51C279.561 353.51 279.762 353.594 279.92 353.762C280.079 353.921 280.158 354.121 280.158 354.364V354.602C280.41 354.266 280.737 353.977 281.138 353.734C281.549 353.491 281.997 353.37 282.482 353.37ZM294.354 359.418C294.485 359.418 294.601 359.483 294.704 359.614C294.816 359.735 294.872 359.899 294.872 360.104C294.872 360.356 294.732 360.571 294.452 360.748C294.181 360.916 293.873 361 293.528 361C292.949 361 292.459 360.879 292.058 360.636C291.666 360.384 291.47 359.857 291.47 359.054V355.19H290.826C290.602 355.19 290.415 355.115 290.266 354.966C290.117 354.817 290.042 354.63 290.042 354.406C290.042 354.191 290.117 354.014 290.266 353.874C290.415 353.725 290.602 353.65 290.826 353.65H291.47V352.754C291.47 352.511 291.549 352.311 291.708 352.152C291.876 351.984 292.081 351.9 292.324 351.9C292.557 351.9 292.753 351.984 292.912 352.152C293.071 352.311 293.15 352.511 293.15 352.754V353.65H294.144C294.368 353.65 294.555 353.725 294.704 353.874C294.853 354.023 294.928 354.21 294.928 354.434C294.928 354.649 294.853 354.831 294.704 354.98C294.555 355.12 294.368 355.19 294.144 355.19H293.15V358.984C293.15 359.18 293.201 359.325 293.304 359.418C293.407 359.502 293.547 359.544 293.724 359.544C293.799 359.544 293.901 359.525 294.032 359.488C294.144 359.441 294.251 359.418 294.354 359.418ZM300.405 353.37C301.329 353.37 301.968 353.655 302.323 354.224C302.677 354.784 302.855 355.563 302.855 356.562V360.146C302.855 360.389 302.775 360.594 302.617 360.762C302.458 360.921 302.257 361 302.015 361C301.772 361 301.571 360.921 301.413 360.762C301.254 360.594 301.175 360.389 301.175 360.146V356.562C301.175 356.049 301.072 355.647 300.867 355.358C300.671 355.059 300.321 354.91 299.817 354.91C299.294 354.91 298.883 355.069 298.585 355.386C298.295 355.694 298.151 356.086 298.151 356.562V360.146C298.151 360.389 298.071 360.594 297.913 360.762C297.754 360.921 297.553 361 297.311 361C297.068 361 296.867 360.921 296.709 360.762C296.55 360.594 296.471 360.389 296.471 360.146V351.494C296.471 351.251 296.55 351.051 296.709 350.892C296.867 350.724 297.068 350.64 297.311 350.64C297.553 350.64 297.754 350.724 297.913 350.892C298.071 351.051 298.151 351.251 298.151 351.494V354.588C298.403 354.252 298.72 353.967 299.103 353.734C299.495 353.491 299.929 353.37 300.405 353.37ZM311.394 357.08C311.384 357.304 311.296 357.486 311.128 357.626C310.96 357.766 310.764 357.836 310.54 357.836H305.92C306.032 358.387 306.288 358.821 306.69 359.138C307.091 359.446 307.544 359.6 308.048 359.6C308.43 359.6 308.729 359.567 308.944 359.502C309.158 359.427 309.326 359.353 309.448 359.278C309.578 359.194 309.667 359.138 309.714 359.11C309.882 359.026 310.04 358.984 310.19 358.984C310.386 358.984 310.554 359.054 310.694 359.194C310.834 359.334 310.904 359.497 310.904 359.684C310.904 359.936 310.773 360.165 310.512 360.37C310.25 360.585 309.9 360.767 309.462 360.916C309.023 361.065 308.58 361.14 308.132 361.14C307.348 361.14 306.662 360.977 306.074 360.65C305.495 360.323 305.047 359.875 304.73 359.306C304.412 358.727 304.254 358.079 304.254 357.36C304.254 356.557 304.422 355.853 304.758 355.246C305.094 354.639 305.537 354.177 306.088 353.86C306.638 353.533 307.226 353.37 307.852 353.37C308.468 353.37 309.046 353.538 309.588 353.874C310.138 354.21 310.577 354.663 310.904 355.232C311.23 355.801 311.394 356.417 311.394 357.08ZM307.852 354.91C306.769 354.91 306.13 355.419 305.934 356.436H309.602V356.338C309.564 355.946 309.373 355.61 309.028 355.33C308.682 355.05 308.29 354.91 307.852 354.91ZM325.343 353.51C325.567 353.51 325.753 353.594 325.903 353.762C326.061 353.921 326.141 354.126 326.141 354.378C326.141 354.462 326.122 354.569 326.085 354.7L323.943 360.468C323.887 360.636 323.784 360.771 323.635 360.874C323.495 360.967 323.341 361.014 323.173 361.014L323.061 361C322.743 360.981 322.505 360.804 322.347 360.468L321.157 357.024L320.023 360.468C319.864 360.804 319.626 360.981 319.309 361L319.197 361.014C319.029 361.014 318.87 360.967 318.721 360.874C318.581 360.771 318.483 360.636 318.427 360.468L316.285 354.7C316.247 354.597 316.229 354.49 316.229 354.378C316.229 354.145 316.303 353.944 316.453 353.776C316.611 353.599 316.817 353.51 317.069 353.51C317.255 353.51 317.414 353.557 317.545 353.65C317.685 353.734 317.783 353.865 317.839 354.042L319.351 358.144L320.457 355.148C320.606 354.803 320.863 354.63 321.227 354.63C321.423 354.63 321.572 354.672 321.675 354.756C321.787 354.84 321.88 354.971 321.955 355.148L323.033 358.074L324.531 354.042C324.587 353.865 324.685 353.734 324.825 353.65C324.965 353.557 325.137 353.51 325.343 353.51ZM334.185 357.08C334.175 357.304 334.087 357.486 333.919 357.626C333.751 357.766 333.555 357.836 333.331 357.836H328.711C328.823 358.387 329.079 358.821 329.481 359.138C329.882 359.446 330.335 359.6 330.839 359.6C331.221 359.6 331.52 359.567 331.735 359.502C331.949 359.427 332.117 359.353 332.239 359.278C332.369 359.194 332.458 359.138 332.505 359.11C332.673 359.026 332.831 358.984 332.981 358.984C333.177 358.984 333.345 359.054 333.485 359.194C333.625 359.334 333.695 359.497 333.695 359.684C333.695 359.936 333.564 360.165 333.303 360.37C333.041 360.585 332.691 360.767 332.253 360.916C331.814 361.065 331.371 361.14 330.923 361.14C330.139 361.14 329.453 360.977 328.865 360.65C328.286 360.323 327.838 359.875 327.521 359.306C327.203 358.727 327.045 358.079 327.045 357.36C327.045 356.557 327.213 355.853 327.549 355.246C327.885 354.639 328.328 354.177 328.879 353.86C329.429 353.533 330.017 353.37 330.643 353.37C331.259 353.37 331.837 353.538 332.379 353.874C332.929 354.21 333.368 354.663 333.695 355.232C334.021 355.801 334.185 356.417 334.185 357.08ZM330.643 354.91C329.56 354.91 328.921 355.419 328.725 356.436H332.393V356.338C332.355 355.946 332.164 355.61 331.819 355.33C331.473 355.05 331.081 354.91 330.643 354.91ZM339.464 353.37C340.108 353.37 340.691 353.538 341.214 353.874C341.736 354.201 342.147 354.658 342.446 355.246C342.754 355.834 342.908 356.501 342.908 357.248C342.908 357.995 342.758 358.667 342.46 359.264C342.161 359.852 341.75 360.314 341.228 360.65C340.714 360.977 340.145 361.14 339.52 361.14C339.072 361.14 338.647 361.051 338.246 360.874C337.854 360.687 337.527 360.463 337.266 360.202V360.286C337.266 360.529 337.186 360.734 337.028 360.902C336.869 361.061 336.668 361.14 336.426 361.14C336.183 361.14 335.982 361.061 335.824 360.902C335.665 360.743 335.586 360.538 335.586 360.286V351.494C335.586 351.251 335.665 351.051 335.824 350.892C335.982 350.724 336.183 350.64 336.426 350.64C336.668 350.64 336.869 350.724 337.028 350.892C337.186 351.051 337.266 351.251 337.266 351.494V354.42C337.49 354.14 337.802 353.897 338.204 353.692C338.605 353.477 339.025 353.37 339.464 353.37ZM339.254 359.6C339.851 359.6 340.341 359.376 340.724 358.928C341.106 358.48 341.298 357.92 341.298 357.248C341.298 356.576 341.106 356.021 340.724 355.582C340.35 355.134 339.86 354.91 339.254 354.91C338.647 354.91 338.152 355.134 337.77 355.582C337.387 356.021 337.196 356.576 337.196 357.248C337.196 357.92 337.387 358.48 337.77 358.928C338.152 359.376 338.647 359.6 339.254 359.6Z" fill="#8E929A"/>
<path d="M186.57 77L176 93.0332M186.57 77L195.966 93.0332M186.57 77H211.117M235.664 77L246 93.0332M235.664 77H211.117M235.664 77L225.329 93.0332M246 93.0332L211.235 133M246 93.0332H225.329M211.235 133L176 93.0332M211.235 133L195.966 93.0332M211.235 133L225.329 93.0332M176 93.0332H195.966M195.966 93.0332L211.117 77M195.966 93.0332H225.329M211.117 77L225.329 93.0332" stroke="url(#paint0_linear)" stroke-width="2"/>
<rect x="111" width="200" height="200" fill="url(#paint1_radial)"/>
<path d="M287.218 189.245L298.439 200.404M287.218 189.245L278.561 198.384M287.218 189.245L267.571 181.646M339.355 241.096L390 284H353.158M339.355 241.096L353.158 284M339.355 241.096L323.723 254.708M339.355 241.096L314.778 227.195M339.355 241.096L313.287 215.171M277.695 251.822L302.705 271.494L309.872 284H328.148M277.695 251.822L238.064 241.096M277.695 251.822L302.08 242.01M277.695 251.822L299.772 254.708L314.778 268.079L328.148 284M238.064 241.096L266.489 228.686M238.064 241.096L231.523 229.504M238.064 241.096L218.826 237.197M198.433 233.063L179.675 224.694H169.238M198.433 233.063L172.557 217.768M198.433 233.063L204.83 234.36M169.238 224.694L143.411 214.93M169.238 224.694L172.557 219.74M143.411 214.93L135.639 203.194M143.411 214.93L146.97 211.708M133.792 200.404L124.461 176.355M133.792 200.404L135.639 203.194M133.792 200.404L123.259 184.147M120.036 148.554L115.13 152.305L120.036 164.95M120.036 148.554H124.317L130.858 152.305M120.036 148.554L124.317 158.847M130.858 152.305L134.994 158.847L140.766 175.152M130.858 152.305L125.299 162.07M140.766 175.152L147.968 184.484M140.766 175.152L131.49 177.605M154.81 203.194L150.529 187.802L147.968 184.484M154.81 203.194L166.93 212.14M154.81 203.194L158.273 212.14M154.81 203.194L159.331 193.67M166.93 212.14L172.557 217.768M166.93 212.14L159.331 193.67M172.557 217.768V219.74M124.461 176.355L116.333 172.747H115.13M124.461 176.355L120.036 164.95M124.461 176.355L123.259 184.147M107.627 172.747L102 176.355M107.627 172.747H115.13M107.627 172.747V178.856M102 176.355L105.607 182.608L110.417 184.484M102 176.355L107.627 178.856M110.417 184.484L116.333 189.149M110.417 184.484L107.627 178.856M116.333 189.149L135.639 203.194M116.333 189.149L115.13 181.646L116.333 174.046M116.333 189.149L123.259 184.147M147.968 184.484L144.373 138.79M147.968 184.484L142.737 183.522M144.373 138.79L150.529 136M144.373 138.79L150.529 148.554M150.529 136L156.541 138.79M150.529 136V148.554M156.541 138.79L160.822 145.331L161.591 153.219M156.541 138.79L150.529 148.554M161.591 153.219L158.273 154.133M161.591 153.219H165.391M158.273 154.133L159.331 166.831V180.876M158.273 154.133L164.14 162.07M159.331 180.876L169.238 209.447M159.331 180.876L164.14 174.046M159.331 180.876L153.559 180.466M169.238 209.447L204.83 234.36M169.238 209.447L174.529 201.943M204.83 234.36L218.826 237.197M204.83 234.36L211.957 233.063M204.83 234.36L193.952 222.722M165.391 153.219L170.393 156.875L173.519 162.07L174.529 182.608M165.391 153.219L164.14 162.07M174.529 182.608L183.393 193.67M174.529 182.608L167.386 183.522M186.361 197.374L198.433 201.943M186.361 197.374L183.393 193.67M186.361 197.374L174.529 201.943M198.433 201.943L217.527 199.442M198.433 201.943L209.303 221.231M217.527 199.442L206.128 192.612M217.527 199.442L229.407 206.417M206.128 192.612L183.393 193.67M206.128 192.612L220.028 191.671M184.437 171.497L183.393 162.07L188.14 157.933M184.437 171.497L198.433 180.466M184.437 171.497L190.208 168.314M188.14 157.933L196.413 158.847M188.14 157.933L190.208 168.314M196.413 158.847L220.028 167.841L221.038 168.314M196.413 158.847L198.433 180.466M196.413 158.847L190.208 168.314M230.513 172.747L215.844 176.355L215.143 189.149M230.513 172.747L239.218 173.397M230.513 172.747L221.038 168.314M247.924 174.046L267.571 181.646M247.924 174.046L255.283 185.397M247.924 174.046L235.563 187.802M247.924 174.046L239.218 173.397M229.407 206.417L243.595 216.181M229.407 206.417L251.868 204.926M229.407 206.417L209.303 221.231M243.595 216.181L266.489 228.686M243.595 216.181L251.868 204.926M243.595 216.181L231.523 229.504M243.595 216.181L209.303 221.231M266.489 228.686L302.08 242.01M266.489 228.686L293.423 214.93M302.08 242.01L322.87 254.207M328.148 284H353.158M323.723 254.708L353.158 284M323.723 254.708L322.87 254.207M293.423 214.93L314.778 227.195M293.423 214.93L313.287 215.171M293.423 214.93L298.439 200.404M293.423 214.93L278.561 198.384M293.423 214.93L251.868 204.926M322.87 254.207L314.778 227.195M314.778 227.195L313.287 215.171M313.287 215.171L298.439 200.404M278.561 198.384L267.571 181.646M278.561 198.384L255.283 185.397M278.561 198.384L251.868 204.926M267.571 181.646L255.283 185.397M251.868 204.926L235.563 187.802M235.563 187.802L220.028 191.671M220.028 191.671L221.038 191.602L215.143 189.149M220.028 191.671L239.218 173.397M215.143 189.149L239.218 173.397M215.143 189.149L209.303 186.718M221.038 168.314L209.303 186.718M221.038 168.314L212.477 173.397L209.303 186.718M209.303 186.718L206.128 185.397L198.433 180.466M198.433 180.466L190.208 168.314M231.523 229.504L218.826 237.197M231.523 229.504L209.303 221.231M231.523 229.504L211.957 233.063M209.303 221.231L193.952 212.716M174.529 201.943L193.952 222.722M174.529 201.943L193.952 212.716M174.529 201.943L167.386 183.522M164.14 174.046V175.152L167.386 183.522M164.14 174.046V162.07M124.317 158.847L120.036 164.95M124.317 158.847L125.299 162.07M146.97 211.708L147.968 200.404M146.97 211.708L131.49 177.605M147.968 200.404L158.273 212.14M147.968 200.404L142.737 183.522M158.273 212.14L154.81 217.768M158.273 212.14L172.557 219.74M142.737 183.522L131.49 177.605M131.49 177.605L127.058 167.841L125.299 162.07M107.627 178.856L115.13 172.747M150.529 148.554L153.559 180.466M153.559 180.466L159.331 193.67M211.957 233.063L193.952 222.722M193.952 222.722V212.716" stroke="url(#paint2_linear)" stroke-width="3"/>
<defs>
<filter id="filter0_f" x="411" y="68" width="63" height="63" filterUnits="userSpaceOnUse" color-interpolation-filters="sRGB">
<feFlood flood-opacity="0" result="BackgroundImageFix"/>
<feBlend mode="normal" in="SourceGraphic" in2="BackgroundImageFix" result="shape"/>
<feGaussianBlur stdDeviation="0.5" result="effect1_foregroundBlur"/>
</filter>
<filter id="filter1_f" x="9" y="265" width="85" height="85" filterUnits="userSpaceOnUse" color-interpolation-filters="sRGB">
<feFlood flood-opacity="0" result="BackgroundImageFix"/>
<feBlend mode="normal" in="SourceGraphic" in2="BackgroundImageFix" result="shape"/>
<feGaussianBlur stdDeviation="0.5" result="effect1_foregroundBlur"/>
</filter>
<filter id="filter2_d" x="408.072" y="51" width="33.8564" height="32" filterUnits="userSpaceOnUse" color-interpolation-filters="sRGB">
<feFlood flood-opacity="0" result="BackgroundImageFix"/>
<feColorMatrix in="SourceAlpha" type="matrix" values="0 0 0 0 0 0 0 0 0 0 0 0 0 0 0 0 0 0 127 0" result="hardAlpha"/>
<feOffset/>
<feGaussianBlur stdDeviation="5"/>
<feComposite in2="hardAlpha" operator="out"/>
<feColorMatrix type="matrix" values="0 0 0 0 0.478431 0 0 0 0 0.529412 0 0 0 0 0.870588 0 0 0 1 0"/>
<feBlend mode="normal" in2="BackgroundImageFix" result="effect1_dropShadow"/>
<feBlend mode="normal" in="SourceGraphic" in2="effect1_dropShadow" result="shape"/>
</filter>
<filter id="filter3_d" x="42.0718" y="201" width="33.8564" height="32" filterUnits="userSpaceOnUse" color-interpolation-filters="sRGB">
<feFlood flood-opacity="0" result="BackgroundImageFix"/>
<feColorMatrix in="SourceAlpha" type="matrix" values="0 0 0 0 0 0 0 0 0 0 0 0 0 0 0 0 0 0 127 0" result="hardAlpha"/>
<feOffset/>
<feGaussianBlur stdDeviation="5"/>
<feComposite in2="hardAlpha" operator="out"/>
<feColorMatrix type="matrix" values="0 0 0 0 0.980392 0 0 0 0 0.686275 0 0 0 0 0.407843 0 0 0 1 0"/>
<feBlend mode="normal" in2="BackgroundImageFix" result="effect1_dropShadow"/>
<feBlend mode="normal" in="SourceGraphic" in2="effect1_dropShadow" result="shape"/>
</filter>
<filter id="filter4_df" x="0.669922" y="277" width="28.6603" height="27.5" filterUnits="userSpaceOnUse" color-interpolation-filters="sRGB">
<feFlood flood-opacity="0" result="BackgroundImageFix"/>
<feColorMatrix in="SourceAlpha" type="matrix" values="0 0 0 0 0 0 0 0 0 0 0 0 0 0 0 0 0 0 127 0" result="hardAlpha"/>
<feOffset/>
<feGaussianBlur stdDeviation="5"/>
<feComposite in2="hardAlpha" operator="out"/>
<feColorMatrix type="matrix" values="0 0 0 0 1 0 0 0 0 0.47451 0 0 0 0 0.419608 0 0 0 1 0"/>
<feBlend mode="normal" in2="BackgroundImageFix" result="effect1_dropShadow"/>
<feBlend mode="normal" in="SourceGraphic" in2="effect1_dropShadow" result="shape"/>
<feGaussianBlur stdDeviation="0.5" result="effect2_foregroundBlur"/>
</filter>
<filter id="filter5_df" x="397.67" y="104.5" width="28.6603" height="27.5" filterUnits="userSpaceOnUse" color-interpolation-filters="sRGB">
<feFlood flood-opacity="0" result="BackgroundImageFix"/>
<feColorMatrix in="SourceAlpha" type="matrix" values="0 0 0 0 0 0 0 0 0 0 0 0 0 0 0 0 0 0 127 0" result="hardAlpha"/>
<feOffset/>
<feGaussianBlur stdDeviation="5"/>
<feComposite in2="hardAlpha" operator="out"/>
<feColorMatrix type="matrix" values="0 0 0 0 0.980392 0 0 0 0 0.686275 0 0 0 0 0.407843 0 0 0 1 0"/>
<feBlend mode="normal" in2="BackgroundImageFix" result="effect1_dropShadow"/>
<feBlend mode="normal" in="SourceGraphic" in2="effect1_dropShadow" result="shape"/>
<feGaussianBlur stdDeviation="0.5" result="effect2_foregroundBlur"/>
</filter>
<filter id="filter6_d" x="131.072" y="408" width="33.8564" height="32" filterUnits="userSpaceOnUse" color-interpolation-filters="sRGB">
<feFlood flood-opacity="0" result="BackgroundImageFix"/>
<feColorMatrix in="SourceAlpha" type="matrix" values="0 0 0 0 0 0 0 0 0 0 0 0 0 0 0 0 0 0 127 0" result="hardAlpha"/>
<feOffset/>
<feGaussianBlur stdDeviation="5"/>
<feComposite in2="hardAlpha" operator="out"/>
<feColorMatrix type="matrix" values="0 0 0 0 0.478431 0 0 0 0 0.529412 0 0 0 0 0.870588 0 0 0 1 0"/>
<feBlend mode="normal" in2="BackgroundImageFix" result="effect1_dropShadow"/>
<feBlend mode="normal" in="SourceGraphic" in2="effect1_dropShadow" result="shape"/>
</filter>
<filter id="filter7_df" x="410.67" y="328" width="28.6603" height="27.5" filterUnits="userSpaceOnUse" color-interpolation-filters="sRGB">
<feFlood flood-opacity="0" result="BackgroundImageFix"/>
<feColorMatrix in="SourceAlpha" type="matrix" values="0 0 0 0 0 0 0 0 0 0 0 0 0 0 0 0 0 0 127 0" result="hardAlpha"/>
<feOffset/>
<feGaussianBlur stdDeviation="5"/>
<feComposite in2="hardAlpha" operator="out"/>
<feColorMatrix type="matrix" values="0 0 0 0 0.980392 0 0 0 0 0.686275 0 0 0 0 0.407843 0 0 0 1 0"/>
<feBlend mode="normal" in2="BackgroundImageFix" result="effect1_dropShadow"/>
<feBlend mode="normal" in="SourceGraphic" in2="effect1_dropShadow" result="shape"/>
<feGaussianBlur stdDeviation="0.5" result="effect2_foregroundBlur"/>
</filter>
<filter id="filter8_df" x="5.66992" y="59.5" width="28.6603" height="27.5" filterUnits="userSpaceOnUse" color-interpolation-filters="sRGB">
<feFlood flood-opacity="0" result="BackgroundImageFix"/>
<feColorMatrix in="SourceAlpha" type="matrix" values="0 0 0 0 0 0 0 0 0 0 0 0 0 0 0 0 0 0 127 0" result="hardAlpha"/>
<feOffset/>
<feGaussianBlur stdDeviation="5"/>
<feComposite in2="hardAlpha" operator="out"/>
<feColorMatrix type="matrix" values="0 0 0 0 0.478431 0 0 0 0 0.529412 0 0 0 0 0.870588 0 0 0 1 0"/>
<feBlend mode="normal" in2="BackgroundImageFix" result="effect1_dropShadow"/>
<feBlend mode="normal" in="SourceGraphic" in2="effect1_dropShadow" result="shape"/>
<feGaussianBlur stdDeviation="0.5" result="effect2_foregroundBlur"/>
</filter>
<linearGradient id="paint0_linear" x1="211" y1="77" x2="211" y2="133" gradientUnits="userSpaceOnUse">
<stop stop-color="#7A87DE" stop-opacity="0.8"/>
<stop offset="0.552083" stop-color="#FAAF68"/>
</linearGradient>
<radialGradient id="paint1_radial" cx="0" cy="0" r="1" gradientUnits="userSpaceOnUse" gradientTransform="translate(211 100) rotate(90) scale(100)">
<stop stop-color="#C4C4C4" stop-opacity="0.1"/>
<stop offset="1" stop-color="#C4C4C4" stop-opacity="0"/>
</radialGradient>
<linearGradient id="paint2_linear" x1="246" y1="136" x2="246" y2="284" gradientUnits="userSpaceOnUse">
<stop stop-color="#2B3141"/>
<stop offset="0.536458" stop-color="#2B3141"/>
<stop offset="1" stop-color="#2E3545" stop-opacity="0"/>
</linearGradient>
</defs>
</svg>
