<svg xmlns="http://www.w3.org/2000/svg" width="200" height="200" fill="none" xmlns:v="https://vecta.io/nano"><path d="M75.571 77L65 93.033M75.571 77l9.396 16.033M75.571 77h24.547m24.547 0L135 93.033M124.664 77h-24.547m24.547 0l-10.335 16.033m20.671 0L100.235 133M135 93.033h-20.671M100.235 133L65 93.033M100.235 133L84.966 93.033M100.235 133l14.094-39.967m-49.329 0h19.966m0 0L100.117 77M84.966 93.033h29.363M100.117 77l14.212 16.033" stroke="url(#A)" stroke-width="2"/><path fill="url(#B)" d="M0 0h200v200H0z"/><defs><linearGradient id="A" x1="100" y1="77" x2="100" y2="133" gradientUnits="userSpaceOnUse"><stop stop-color="#7a87de" stop-opacity=".8"/><stop offset=".552" stop-color="#faaf68"/></linearGradient><radialGradient id="B" cx="0" cy="0" r="1" gradientUnits="userSpaceOnUse" gradientTransform="translate(100 100) rotate(90) scale(100)"><stop stop-color="#c4c4c4" stop-opacity=".1"/><stop offset="1" stop-color="#c4c4c4" stop-opacity="0"/></radialGradient></defs></svg>