<svg xmlns="http://www.w3.org/2000/svg" width="200" height="200" fill="none" xmlns:v="https://vecta.io/nano"><path fill="url(#A)" d="M0 0h200v200H0z"/><path d="M32.14 22.222L2.778 66.759M32.14 22.222l26.1 44.537m-26.1-44.537h68.186m68.186 0l28.71 44.537m-28.71-44.537h-68.186m68.186 0l-28.71 44.537m57.42 0l-96.57 111.019m96.57-111.019h-57.42m-39.15 111.019L2.778 66.759m97.874 111.019L58.24 66.759m42.412 111.019l39.15-111.019m-137.024 0H58.24m0 0l42.086-44.537M58.24 66.759h81.562m-39.476-44.537l39.476 44.537" stroke="url(#B)" stroke-width="2"/><defs><radialGradient id="A" cx="0" cy="0" r="1" gradientUnits="userSpaceOnUse" gradientTransform="translate(100 100) rotate(90) scale(100)"><stop stop-color="#c4c4c4" stop-opacity=".1"/><stop offset="1" stop-color="#c4c4c4" stop-opacity="0"/></radialGradient><linearGradient id="B" x1="100" y1="22.222" x2="100" y2="177.778" gradientUnits="userSpaceOnUse"><stop stop-color="#7a87de" stop-opacity=".8"/><stop offset=".552" stop-color="#faaf68"/></linearGradient></defs></svg>